<svg version="1.1" id="Livello_1" xmlns="http://www.w3.org/2000/svg" x="0" y="0" viewBox="0 0 642.73 541.66" xml:space="preserve"><style>.st1{fill:#feffff}.st2{fill:#fcfdfe}.st4{fill:#fbfdfe}</style><path d="M-470.68 374.69c-.59.33-.39.91-.39 1.39 0 5.56-.46 11.09-.97 16.62-.46 5.01-.86 10.02-1.42 15.01-.38 3.38-.9 6.74-1.53 10.08-.77 4.06-1.28 8.18-2.36 12.18-1.13 4.21-2.17 8.45-4.05 12.42-.65 1.36-1.52 2.53-2.6 3.57-.44.42-.92.75-1.55.8-.57.05-1.05-.06-1.08-.77-.02-.52-.02-1.04-.02-1.56v-12.88c-.59-.25-.69.22-.85.49-3.88 6.69-10 9.49-17.42 9.73-5.78.19-11.58.06-17.36.06-7.87 0-15.73-.01-23.6 0-3.58 0-7.1-.46-10.55-1.42-8-2.24-12.46-7.77-13.18-16-.33-3.75-.17-7.43 1.03-10.98 2.41-7.14 7.34-11.3 14.92-12.16 5.48-.61 10.97-.15 16.45-.3.92-.02 1.37.35 1.37 1.3-.01 4.67-.02 9.35.01 14.02.01 1.11-.57 1.38-1.54 1.37-3.56-.02-7.12-.02-10.69 0-1.11.01-2.24.01-3.33.2-2.09.36-3.02 1.49-3.04 3.47-.03 2 .84 3.08 2.92 3.6 1.08.27 2.18.39 3.3.39 13.73-.01 27.46-.02 41.19 0 1.28 0 2.52-.16 3.74-.46 1.77-.44 2.72-1.64 2.78-3.3.06-1.74-.72-2.75-2.56-3.44-1.22-.46-2.48-.45-3.73-.45-4.3-.01-8.61 0-12.91-.01-2.03-.01-2.07-.04-2.08-1.92-.02-4.38-.02-8.75 0-13.13.01-1.69.04-1.73 1.75-1.73 5.42-.01 10.84-.06 16.25.06 3.59.08 7.04.92 10.22 2.71 2.95 1.67 4.99 4.15 6.45 7.19.76-.28.44-.88.44-1.31.02-5.27.02-10.54.01-15.8 0-2.24-.01-2.25-2.34-2.25h-63.9c-4.75 0-9.5.01-14.25 0-1.85-.01-1.88-.03-1.89-1.82-.02-4.23.02-8.46-.02-12.69-.01-1.15.37-1.65 1.53-1.55.59.05 1.19.01 1.78.01h76.36c3.01 0 2.7.28 2.72-2.78.01-2.15-.04-4.3.01-6.45.03-1.07-.4-1.42-1.44-1.4-3.41.04-6.83.03-10.24.01-1.69-.01-1.73-.04-1.73-1.75-.02-4.53-.02-9.05 0-13.58.01-1.54.05-1.58 1.66-1.59 3.34-.02 6.68.01 10.02-.02 1.68-.01 1.7-.04 1.72-1.76.02-2.67-.02-5.34.01-8.01.01-.94-.33-1.38-1.3-1.31-.59.04-1.19 0-1.78 0h-76.59c-3.02 0-2.72.26-2.72-2.77-.01-9.27 0-18.55 0-27.82 0-.52.02-1.04 0-1.56-.04-.86.38-1.18 1.21-1.17 4.6.01 9.2.03 13.8-.01 1.18-.01 1.3.62 1.3 1.55-.02 4.08-.01 8.16-.01 12.24 0 .52.02 1.04.01 1.56-.03.86.4 1.18 1.22 1.17 3.56-.01 7.12-.02 10.69 0 1.06.01 1.18-.6 1.18-1.43-.01-3.56 0-7.12 0-10.68v-1.34c.02-2.17.02-2.18 2.19-2.19q5.79-.015 11.58 0c2.21 0 2.22.01 2.23 2.15.01 3.78 0 7.57.01 11.35.01 2.11.02 2.14 2.03 2.14 10.98.01 21.97.01 32.95 0 1.97 0 2-.03 2-1.93.01-7.49.01-14.99 0-22.48 0-2.08-.02-2.1-2.06-2.1-9.2-.01-18.4 0-27.61 0h-49.42c-.52 0-1.04.01-1.56 0-1.68-.05-1.71-.05-1.72-1.77-.01-8.16-.07-16.32.03-24.48.05-3.88 1.03-7.48 4.15-10.18 1.55-1.34 3.3-2.33 5.26-2.79 7-1.63 14.06-2.1 21.17-.78 3.87.72 6.93 2.54 8.68 6.21.09.18.31.3.56.54 1.76-4.88 5.72-6.22 10.28-6.26 9.65-.07 19.29.02 28.94.04.45 0 .89.01 1.34 0 1.92-.02 1.94-.02 1.95-1.97.01-2-.02-4.01.01-6.01.02-.92-.32-1.31-1.27-1.39-4.87-.42-9.74-.89-14.61-1.37-5.46-.53-10.91-1.08-16.37-1.61-5.16-.5-10.33-.98-15.49-1.48-5.61-.55-11.21-1.12-16.81-1.66-5.31-.51-10.63-1-15.94-1.48-1.84-.17-1.88-.14-1.88-1.91-.01-8.24-.01-16.47 0-24.71 0-1.7.03-1.7 1.67-1.86 9.44-.9 18.89-1.78 28.33-2.7 8.41-.81 16.81-1.68 25.22-2.49 7.08-.68 14.18-1.25 21.25-1.98 2.13-.22 4.27-.44 6.39-.71 2.99-.38 5.87.51 8.61 1.71 1.62.71 3.16 1.59 4.56 2.72.99.8 1.2.73 1.79-.48 2.54-5.19 5.04-10.4 7.58-15.59 2.27-4.66 4.54-9.32 6.86-13.96 2.12-4.24 4.3-8.44 6.46-12.66 2.02-3.96 3.99-7.94 6.07-11.87 3.26-6.15 6.53-12.29 9.9-18.38 3.11-5.64 6.3-11.24 9.54-16.81 2.94-5.05 5.87-10.13 9.05-15.03 3.87-5.96 7.71-11.94 12.12-17.54 2.76-3.5 5.6-6.91 8.91-9.89 1.88-1.69 3.88-3.21 6.45-3.76 2.38-.51 4.96 1.03 5.55 3.32.17.65-.22.97-.57 1.33-1.1 1.1-2.22 2.18-3.32 3.29-5.88 5.98-11.15 12.47-16.28 19.1-4.26 5.52-8.28 11.2-12.16 16.97-6.98 10.39-13.46 21.09-19.56 32.02-4.45 7.96-8.75 15.99-12.92 24.09-4.27 8.29-8.27 16.72-12.32 25.12-2.51 5.2-4.81 10.49-7.2 15.75-.31.68-.5 1.29-.06 2.08 2.72 4.89 3.64 10.11 2.69 15.64-.02.14.04.29.07.44.6.3.76-.25.99-.55 5.91-7.69 11.78-15.4 17.7-23.08 4.52-5.86 9.07-11.69 13.65-17.5 5.09-6.45 10.23-12.87 15.45-19.22 6.16-7.5 12.46-14.87 18.86-22.16 4.01-4.57 8.13-9.03 12.27-13.48 5.35-5.75 10.74-11.47 16.35-16.96 9.16-8.97 18.58-17.66 28.45-25.86 13.08-10.87 26.78-20.85 41.21-29.84 7.36-4.59 14.94-8.8 22.66-12.78a305.5 305.5 0 0 1 41.88-17.8c6.87-2.33 13.78-4.49 20.79-6.35 5.71-1.52 11.43-3 17.21-4.23 6.58-1.4 13.2-2.62 19.86-3.61 6.37-.95 12.73-1.92 19.14-2.53 6.18-.59 12.37-1.14 18.58-1.51 1.54-.09 3.08-.28 4.64-.31.87-.01 1.24.33 1.55 1.19 1.73 4.91 2.56 10.02 3.43 15.12.67 3.95 1.05 7.92 1.01 11.93-.05 5.11.19 10.24-.49 15.32-.43 3.22-.98 6.43-1.59 9.63-2.52 13.33-7.21 25.9-13.23 38.02-3.93 7.91-8.4 15.48-13.18 22.9-3.49 5.42-7.18 10.71-11.01 15.89-3.53 4.76-7.14 9.45-10.9 14.02-1.22 1.48-1.73 3.07-2.1 4.8-1.63 7.66-3.35 15.31-4.79 23.01-1.1 5.89-2.46 11.73-3.42 17.65-.75 4.67-1.81 9.29-2.8 13.92-1.25 5.79-2.54 11.56-3.86 17.33-2.61 11.41-5.73 22.68-9.63 33.72-3.42 9.66-7.58 18.99-12.84 27.79-3.23 5.41-6.93 10.51-11.24 15.12-.8.85-.8 1.49-.41 2.53a206 206 0 0 1 9.19 32.22c1.27 6.38 2.29 12.82 2.76 19.32.33 4.57.81 9.17.63 13.74-.23 5.55.08 11.1-.46 16.65-.32 3.3-.28 6.65-.63 9.97-.49 4.63-.98 9.27-1.48 13.9-.24 2.2-.51 4.41-.71 6.61-.32 3.34-1.19 6.55-2.38 9.67-2.26 5.88-4.6 11.72-7.14 17.49-1.77 4-3.69 7.92-5.61 11.85-1.68 3.43-3.98 6.44-6.35 9.36-5.67 6.99-12.22 13.07-19.31 18.62-11.39 8.92-23.81 16.08-36.98 21.98-8.6 3.85-17.46 7.02-26.59 9.37-7.31 1.88-14.71 3.18-22.23 4.09-5.56.67-11.1.81-16.63.56-5.45-.25-10.87-1.15-16.18-2.59-4.88-1.32-9.58-3.07-14.04-5.43-9.58-5.07-17.5-12.09-24.31-20.47-4.69-5.78-8.72-11.99-12.32-18.48-4.35-7.84-8.05-16.01-11.32-24.36-1.54-3.93-3.15-7.84-4.51-11.83-3.22-9.45-6.5-18.88-9.32-28.46-1.15-3.89-2.36-7.78-3.61-11.65-1.27-3.93-2.37-7.93-3.58-11.88-1.02-3.34-2.64-6.43-3.99-9.64-.77-1.84-1.67-3.63-2.51-5.45-.23-.39-.36-.83-.91-.87m124.52-105.66c4.17-.18 10.09.77 15.94 2.1 7.45 1.69 14.67 4.17 21.93 6.51 7.99 2.58 16.09 4.56 24.49 5.17 2.52.18 5.1.09 7.51-.53 5.87-1.54 10.94-4.51 14.58-9.54 2.6-3.59 3.97-7.62 3.8-12.06-.17-4.22-1.64-8.1-3.67-11.76-2.7-4.86-6.41-8.9-10.61-12.47-7.57-6.44-16.37-10.56-25.86-13.32-5.77-1.68-11.62-2.87-17.59-3.58-5-.59-10.01-.98-15.03-1.19-6.3-.27-12.58.28-18.85.82-5.24.45-10.35 1.7-15.43 3.02-17.64 4.58-34.06 11.99-49.48 21.63-8.23 5.14-16.21 10.69-24.91 15.04-5.84 2.92-11.78 5.57-18.13 7.2-2.58.67-5.12 1.47-7.66 2.28-1.82.58-2.44 1.61-1.83 3.16.9 2.31 2.13 4.13 4.86 4.94 7.49 2.22 15.1 3.64 22.88 4.1 4.95.29 9.9.13 14.87-.24 6.5-.49 12.95-1.33 19.35-2.5 10.92-2.01 21.78-4.31 32.7-6.33 8-1.46 16.1-2.3 26.14-2.45m-123.87-6.71c.32.24.66.03 1-.08 3.97-1.23 7.84-2.72 11.68-4.29 13.53-5.56 26.45-12.35 39.04-19.76 13.73-8.09 27.11-16.71 40.11-25.94 10.69-7.6 21.22-15.38 31.17-23.95 5.92-5.09 10.73-11.02 14.81-17.6 4.07-6.56 7.41-13.49 10.61-20.5 2.15-4.72 3.7-9.68 5.65-14.48 2.61-6.44 6.49-11.95 11.88-16.37.99-.81 2.05-1.38 3.33-1.68 2.59-.6 5.15-1.32 7.72-2.03 1-.27 1.98-.63 2.81-1.29.35-.27.78-.55.69-1.06-.1-.57-.65-.53-1.07-.56-1.47-.13-2.95-.29-4.43-.31-4.82-.07-9.63-.22-14.45-.05-6.23.23-12.4.78-18.54 1.86-12.32 2.17-23.88 6.32-34.53 12.95-7.01 4.37-13.26 9.69-19.41 15.16-8.15 7.25-15.74 15.05-23.09 23.09-4 4.37-7.82 8.9-11.61 13.45-3.89 4.67-7.68 9.41-11.34 14.25-5.05 6.68-9.95 13.46-14.62 20.41-3.26 4.85-6.47 9.74-9.56 14.71-3.4 5.47-6.56 11.09-9.67 16.73-2.97 5.39-5.46 11.01-8.23 16.5-.14.25-.23.54.05.84m103.89 218.36c.37-.87.22-1.62.22-2.35-.03-6.67-.9-13.27-1.81-19.87-1.28-9.34-3.34-18.49-6.26-27.43-2.48-7.59-5.5-15-8.72-22.32a250 250 0 0 0-6.79-14.22c-3.47-6.72-7.24-13.25-11.53-19.49-3.28-4.76-6.82-9.31-10.71-13.6-4.24-4.69-8.8-9.02-13.97-12.65-9.46-6.63-19.1-13.01-27.97-20.45-3.75-3.15-7.39-6.39-10.56-10.14-1.08-1.28-2.1-2.6-3.08-4.13-.54.88-.3 1.5-.15 2.13.57 2.37 1.17 4.74 1.71 7.11 2.07 9.04 5.28 17.7 8.92 26.2 2.22 5.17 4.78 10.18 7.44 15.14 2.63 4.9 5.44 9.67 8.67 14.21 3 4.22 5.98 8.47 8.8 12.82 4.39 6.77 8.61 13.66 12.55 20.71 3.14 5.63 6.25 11.28 8.94 17.13 3 6.54 6.19 12.96 10.05 19.04 5.26 8.29 11.42 15.84 18.54 22.61 4.53 4.3 9.57 7.69 15.71 9.55m37.71-101.25c.18-.67-.13-.91-.39-1.16-3.21-3.08-6.09-6.46-8.85-9.95-6-7.61-10.81-15.91-14.62-24.8-2.76-6.46-5.22-13.04-8.09-19.46-2.69-6.01-6.13-11.49-10.62-16.31-.59-.64-1.08-.79-1.92-.59-6.26 1.49-12.6 2.5-19.04 2.81-8.52.42-17.04.29-25.49-.96-11.39-1.69-22.43-4.7-33.15-8.92-2.37-.93-4.72-1.89-7.1-2.84-.33.95.11 1.51.4 2.09 2.28 4.49 4.57 8.96 7.32 13.19 5.22 8.03 11.03 15.57 17.71 22.45 6.58 6.77 13.79 12.77 21.57 18.11 7.16 4.92 14.65 9.2 22.56 12.79 9.25 4.21 18.79 7.53 28.7 9.82 7.29 1.68 14.65 2.89 22.1 3.36 2.97.2 5.91.75 8.91.37m34.51-160.74c1.63.19 3.68-.31 5.75-.3 4.9.01 9.76-.5 14.56-1.45 5.92-1.17 11.63-2.95 16.76-6.25 5.47-3.52 9.55-8.13 11.3-14.55.34-1.25.3-2.46-.02-3.72-1.07-4.25-3.59-7.61-6.5-10.7-6.97-7.38-15.83-11.39-25.53-13.52-7.59-1.67-15.32-2.39-23.15-1.63-4.72.46-9.42.93-14.01 2.19-8.07 2.23-15.1 6.06-20.03 13.05-3.57 5.06-5.38 10.52-3.2 16.72 1.14 3.26 2.74 6.25 5.2 8.69 4.55 4.5 10.15 7.2 16.23 8.8 7.24 1.93 14.69 2.58 22.64 2.67m-88.17 160.71c.39 2.57.69 5.13 1.19 7.64.65 3.26 1.57 6.48 2.18 9.75.85 4.52 2.19 8.91 3.57 13.27 1.92 6.07 4.01 12.07 6.75 17.85 3.56 7.52 7.32 14.87 12.49 21.43 4.78 6.06 10.35 11.16 17.18 14.87 4.57 2.48 9.42 2.97 14.43 2.35 6.22-.77 11.79-3.31 17.06-6.6 1.15-.72 1.44-1.51 1.25-2.75-.33-2.12-.47-4.26-.83-6.38-1.26-7.57-3.53-14.83-7.02-21.64-4.36-8.52-10.13-15.98-17.37-22.31-7.32-6.4-15.42-11.52-24.4-15.21-8.3-3.41-16.46-7.11-24.29-11.49-.61-.33-1.2-.88-2.19-.78m-64.69-85.62c-.08.16-.16.32-.25.48 1.28.68 2.54 1.42 3.85 2.03 6.14 2.89 12.6 4.68 19.26 5.87 6.64 1.18 13.34 1.84 20.07 1.99 6 .13 11.98-.01 17.97-.64 3.9-.41 7.79-.86 11.68-1.3 2.21-.25 4.38-.69 6.58-1.01.95-.14 1.67-.08 2.03 1.11 2.05 6.86 6.18 12.44 11.28 17.27 5.37 5.08 11.65 8.86 18.39 11.89 5.56 2.5 11.35 4.25 17.26 5.65 5.05 1.19 10.19 1.96 15.35 2.22 4.57.23 9.17.22 13.77-.24 5.48-.54 10.84-1.48 16.07-3.18 1.69-.55 3.33-1.23 4.98-1.88.83-.32 1.12-.91.81-1.77-.38-1.04-.7-2.11-1.13-3.13-5.07-11.97-13.94-20.01-25.84-24.92-7.3-3.01-14.9-4.75-22.7-5.87-8.01-1.14-16.05-1.63-24.11-1.75-9.34-.14-18.68-.04-28.01.4-3.92.18-7.87.03-11.78.32-5.39.4-10.8.56-16.19.63-8.37.11-16.75.34-25.12-.26-2.8-.2-5.62-.32-8.41-.69-5.34-.71-10.68-1.47-15.81-3.22m122.88 46.99c-2.53.12-5.04.21-7.55.39-1.55.11-3.11.28-4.63.58-1.89.38-3.76.87-5.6 1.41-1.24.37-1.45.86-1.05 1.99 1.2 3.36 2.75 6.55 4.56 9.62 3.63 6.15 7.96 11.79 12.83 16.99 6.35 6.78 13.3 12.9 21.23 17.82 6.6 4.1 13.56 7.31 21.36 8.31 6.11.78 11.76-.43 16.82-4.12 4.66-3.41 7.53-8.07 9.57-13.34 1.09-2.82 1.38-5.71.94-8.72-.65-4.47-3.05-7.99-6.07-11.13-4.56-4.72-10.19-7.83-16.14-10.41-8.05-3.49-16.46-5.74-25.08-7.31-7.02-1.28-14.1-1.74-21.19-2.08m52.77-231.08c-3.45.22-6.81.67-9.88 2.32-4 2.15-6.8 5.36-8.45 9.61-1.41 3.63-2.35 7.42-2.06 11.26.51 6.82 2.28 13.38 5.19 19.61 1.49 3.19 3.31 6.2 5.88 8.55 5.93 5.43 13.01 7.19 20.8 5.4 9.1-2.09 16.41-7.02 21.61-14.82 3.31-4.96 4.81-10.47 3.79-16.44-.79-4.59-3.2-8.4-6.39-11.71-4.72-4.89-10.54-8.08-16.73-10.69-4.43-1.85-9.03-2.8-13.76-3.09m-168.41 283.8c.27 5.04-.05 9.77.28 14.52.25 3.68.33 7.4.73 11.07.7 6.54 1.63 13.05 3.03 19.48 1.21 5.57 2.62 11.1 4.53 16.47 1.96 5.51 4.26 10.87 7.16 15.98 4.11 7.24 9.18 13.61 15.92 18.58 3.79 2.8 7.97 4.84 12.41 6.35 1.71.58 2.06.31 2.24-1.52.14-1.4.3-2.79.38-4.2.45-7.5-1.03-14.74-3.19-21.85-1.64-5.39-3.78-10.58-6.32-15.63-3.7-7.36-8.06-14.31-12.83-21.02-2.79-3.92-5.64-7.8-8.27-11.83-5.18-7.94-9.94-16.14-14.5-24.46-.34-.6-.52-1.36-1.57-1.94m91.46-3.51c.91.82 1.85 1.27 2.78 1.63 3.41 1.31 6.5 3.2 9.64 5.03 9.04 5.26 16.45 12.33 22.94 20.41 3.37 4.2 7.3 7.73 11.67 10.8 6.72 4.72 14.13 7.69 22.29 8.83 3.85.54 7.4-2.46 7.68-5.42.17-1.86.15-3.65-.01-5.5-.76-8.81-5.11-15.66-11.63-21.25-5.16-4.43-11.13-7.54-17.49-9.93-11.44-4.31-23.32-5.97-35.47-6-2.57-.01-5.17.28-7.75.42-1.51.07-3.02.38-4.65.98m-97.03 32.35c.56-3.75 1.3-7.07 1.49-10.42.43-7.34.06-14.65-1.53-21.86-2.36-10.69-6.73-20.64-11.17-30.56-2.05-4.59-4.31-9.09-6.36-13.68-3.31-7.44-6.18-15.04-8.26-22.93-.33-1.24-.02-2.65-1-3.9-.65.6-.8 1.28-.72 2.02.13 1.25.26 2.5.47 3.74.9 5.26 1.04 10.59 1.36 15.89.28 4.65.2 9.34.16 14-.03 3.36.24 6.49 1.9 9.62 2.66 5.02 4.83 10.31 7.11 15.53 3.72 8.54 7.32 17.14 10.49 25.91 1.58 4.38 3.16 8.77 4.56 13.21.33 1.02.26 2.22 1.5 3.43m232.38-306.28c.47-.03 1.07-.05 1.65-.12 6.19-.72 11.33-3.23 14.74-8.68 1.69-2.7 2.5-5.64 2.79-8.79.25-2.65.2-2.93-2.1-4.24-3.3-1.88-6.8-3.29-10.46-4.26-5.34-1.42-10.74-2.12-16.25-1.1-3.85.71-7.15 2.36-9.69 5.4-.48.58-.94 1.15-.94 1.95.02 5.39 1.49 10.26 5.4 14.12 4.07 4.01 9.11 5.66 14.86 5.72m10.57-79.63c-1.85 0-3.71-.14-5.55.04-1.83.18-3.65.58-5.42 1.18-6.25 2.12-7.97 5.7-8.21 12.68-.07 1.9.77 2.44 2.64 2.35 2.74-.12 5.5-.23 8.21.22 3.86.64 7.7 1.41 11.55 2.13 4.15.78 8.31 1.39 12.56 1.24 5-.17 8.23-2.69 9.46-7.48.54-2.1.12-3.86-1.52-5.42-2.43-2.31-5.34-3.74-8.44-4.74-4.95-1.61-10.02-2.63-15.28-2.2m4.32 44.84c3.11.22 6.08-.34 8.97-1.34 3.82-1.33 6.63-3.8 8.22-7.59.48-1.15.38-2.04-.43-3.05-2.09-2.62-4.89-4.02-8.01-4.9-6.01-1.69-12.18-1.45-18.31-1.17-4.2.19-8.41.25-12.62.57-2.65.2-5.32.03-7.97-.25-1.29-.13-1.43.15-1.04 1.38.83 2.62 2.46 4.75 4.49 6.5 7.67 6.61 16.72 9.53 26.7 9.85m-17.17 71.24c3 .19 5.89-.28 8.63-1.58 1.77-.84 3.02-1.98 3.31-4.09.19-1.39.28-2.8.54-4.17 1.37-7.08-1.32-12.61-6.43-17.23-2.69-2.43-5.92-2.63-8.99-.67-1.13.72-2.12 1.61-2.94 2.68-4.3 5.58-5.85 11.98-5.91 18.92-.02 2.24.94 3.44 2.74 4.34 2.86 1.42 5.87 2.01 9.05 1.8m-179.86 136.96c.06.18.12.36.17.54 3.22-.38 6.39-1.09 9.6-1.55 5.64-.81 11.29-1.45 16.95-2.05 6.84-.73 13.7-1.16 20.58-1.31 7.48-.16 14.95-.01 22.4.87 4.63.55 9.22 1.29 13.74 2.49 2.2.58 4.29 1.5 6.43 2.12.2-.36.05-.54-.12-.66-1.42-.95-2.8-1.95-4.27-2.8-10.44-6.03-21.69-9.4-33.73-9.98-6.44-.31-12.88-.14-19.25 1.03-8.7 1.59-17.09 4.21-25.18 7.8-2.47 1.1-4.88 2.33-7.32 3.5m132.1-215.41c.67 0 1.35.1 2-.01 8.02-1.37 14.06-5.62 18.05-12.68 1.33-2.35 1.92-4.99 1.11-7.71-1.39-4.67-8.02-6.79-11.97-4.59-2.99 1.67-4.85 4.28-6.41 7.18-2.48 4.59-3.86 9.59-5.23 14.58-.79 2.82-.4 3.27 2.45 3.23m34.17 137.71c.59 0 1.2.07 1.78-.01 3.33-.46 6.31-1.6 8.38-4.44 2.88-3.96 1.87-9.76-1.04-13.22-2.93-3.48-6.92-4.42-11.2-2.36-2.82 1.35-5.45 3.01-7.45 5.49-3.56 4.42-3.25 9.41 1.51 12.41 2.46 1.56 5.14 2.2 8.02 2.13m-71.46-130.43c0-.81.02-1.62-.39-2.38-.84-1.56-1.57-1.77-3.15-.92-1.76.95-3.52 1.88-5.28 2.83-5.2 2.83-10.56 5.35-15.5 8.65-5.49 3.68-10.21 8.05-13.33 13.97-.23.44-.76.88-.45 1.39.39.64 1.06.28 1.62.19.22-.04.42-.14.64-.19 9.85-2.58 18.82-7.01 27.1-12.88 2.97-2.11 5.71-4.47 7.72-7.56.64-.96 1.06-1.94 1.02-3.1m32.33 9.68c-4.15.15-8.2.75-12.02 2.65-2.99 1.49-4.78 3.88-5.87 6.91-.35.96-.13 1.68.9 2.16 3.35 1.57 6.93 2.47 10.55 2.3 7.81-.36 14.69-3.21 20.35-8.74 1.03-1.01 1.05-1.05-.24-1.88-.56-.36-1.15-.66-1.75-.95-3.76-1.8-7.8-2.25-11.92-2.45m16.95-4.57c1.35.21 2.64-.29 3.97-.32 3.73-.08 7.31-.93 10.77-2.31 1.39-.55 2.64-1.36 3.67-2.44 1.31-1.37 1.85-2.94 1.09-4.84-1.13-2.83-2.98-4.14-6.38-4.15-6.25-.03-11.87 2.07-17.16 5.21-2.62 1.55-5.04 3.36-6.88 5.84-.73.98-.68 1.09.46 1.48 3.38 1.15 6.93 1.27 10.46 1.53m92.92-59.45c-4.92-.02-9.45 1.48-13.76 3.7-1.49.77-1.65 1.41-.71 2.59 3.87 4.89 8.81 8.07 15.03 9.01 4.04.61 8.94-3.24 9.46-7.31.09-.72.09-1.47-.18-2.19-1.27-3.33-3.55-5.4-7.17-5.79-.89-.09-1.78-.01-2.67-.01m-5.48 29.7c-2.74-.01-5.47-.03-8.21 0-1.76.02-1.85.13-2.12 1.83-.91 5.8 2.79 10.76 8.85 12.08 8.19 1.79 13.5-5.12 11.57-12.5-.26-1.01-.81-1.45-1.89-1.43-2.73.06-5.47.02-8.2.02m-70.94 281.5c-.1-1.77-.18-3.56-.68-5.26-1.88-6.38-6.12-10.45-12.39-12.59-3.51-1.19-3.96-.72-5.02 2.96-.1.35-.06.74-.09 1.1-.35 3.76 1.28 6.82 3.67 9.45 3.16 3.48 7.09 5.75 11.73 6.77 2.6.56 2.96.28 2.78-2.43m10.63-72.59c-.01-.74.05-1.48-.02-2.22-.28-2.97-2.03-6.37-5.52-6.88-1.75-.26-3.39.07-4.91.85-3.79 1.95-5.73 5.26-6.36 9.33-.45 2.89.15 3.73 2.74 5.12 3.28 1.77 6.64 1.75 10.05.47 3.2-1.2 4.01-2.39 4.01-5.79.01-.29.01-.58.01-.88m-281.69 10.99h11.13c2.08 0 4.15-.03 6.23.01.93.02 1.36-.33 1.33-1.29-.04-1.19-.05-2.37 0-3.56.05-1.04-.35-1.47-1.41-1.44-2 .05-4 .01-6.01.01-8.38.01-16.76-.02-25.14.04-3.21.02-4.31 1.15-4.5 4.24-.11 1.89-.05 1.98 1.91 1.99 5.49.01 10.98 0 16.46 0m213.21-208.04c-.05 1.39.15 1.57 1.55 1.33 3.29-.55 6.52-1.35 9.61-2.59 3.02-1.22 5.97-2.61 8.13-5.21 1.5-1.81 1.71-3.69.6-5.75-1.85-3.43-5.3-4.7-8.84-3.07-6.54 3.01-9.68 8.54-11.05 15.29m51.37 168.37c4.64-.21 8.84-3.54 10.18-8.48.23-.86.05-1.37-.87-1.69-2.12-.74-3.89-2.08-5.65-3.45-.87-.68-1.81-1.28-2.74-1.88-1.6-1.01-3.39-1.45-5.24-1.62-1.41-.13-1.93.18-1.94 1.47-.02 2.62-.78 5.1-1.11 7.66-.6 4.75 3.16 8 7.37 7.99m68.64-131.12c1.49.12 2.62-.57 3.68-1.42 2.54-2.04 3.91-4.77 4.59-7.89.94-4.31-1.44-7.25-5.86-7.26-3.34-.01-6.35 1.28-9.4 2.42-.77.29-.87.88-.8 1.62.17 1.94.92 3.73 1.34 5.6.47 2.09 1.64 3.81 2.98 5.39.86 1.05 2.04 1.72 3.47 1.54M-554.69 223c.45.65 1.17.53 1.81.57 7.23.51 14.46.98 21.69 1.5 2.8.2 5.6.49 8.4.7 2.95.22 5.91.38 8.86.59.92.07 1.37-.23 1.35-1.23-.04-1.7-.03-3.41-.01-5.11.01-.89-.38-1.14-1.23-1.06-3.31.31-6.63.57-9.95.86-6.33.55-12.67 1.12-19 1.68-3.68.32-7.37.63-11.05.94-.38.04-.74.1-.87.56m107.4 66.43c2.99.2 6.21-.21 9.42-.74 1.02-.17 2.04-.3 3.06-.48.18-.03.4-.22.46-.38.14-.37-.19-.53-.45-.63-.27-.11-.57-.13-.86-.19-8.45-1.81-16.84-3.82-25.2-5.99-4.25-1.11-4.24-1.13-3.93 3.36.16 2.36.16 2.37 2.37 3.04 4.85 1.43 9.79 2.19 15.13 2.01M-191.38 32.3c1.19-2.05 2.76-3.17 4.8-3.56 1.81-.35 3.58-.83 5.43-1.01 2.04-.21 4.08-.65 5.95-1.62 1.71-.9 2.61-2.59 2.35-4.38-.35-2.4-1.34-3.58-3.44-4.09-.88-.21-1.77-.22-2.64-.04-4.75 1-8.61 3.43-11.46 7.35-1.54 2.12-2.13 4.46-.99 7.35m-295.28 190.28c0-1.56-.03-3.11.01-4.67.02-.93-.29-1.37-1.29-1.28-3.39.32-6.78.61-10.18.89-.83.07-1.18.44-1.18 1.26.02 2.59.01 5.19.01 7.78 0 .67.17 1.12.97 1.18 3.47.25 6.94.53 10.41.82 1.02.09 1.28-.42 1.26-1.32-.03-1.55-.01-3.11-.01-4.66m132.38 274.05c2.92-.03 5.73-.64 8.42-1.74 3.51-1.44 6.02-3.97 7.82-7.27.37-.69.5-1.35-.6-1.35-4.14-.01-8.32-.33-12.34 1.04-2.91.99-4.99 2.79-5.85 5.87-.89 3.15-.71 3.44 2.55 3.45m31.79-6.88c.44 0 .89.03 1.33 0 3.15-.21 5.8-2.26 6.6-5.09.43-1.49.23-2.18-1-3.07-2.7-1.95-5.71-2.76-9.02-2.29-3.03.43-5.18 2.51-6 5.48-.29 1.04-.05 1.7.73 2.31 2.16 1.68 4.58 2.66 7.36 2.66m104.24-312.49c.37 0 .74.04 1.11-.01 3.79-.44 6.53-3.08 6.67-5.75.06-1.15-.22-1.79-1.09-2.4-2.38-1.66-4.95-2.54-7.89-2.41-3.47.15-5.99 2.05-7.03 5.31-.39 1.21-.05 1.99.85 2.7 2.16 1.71 4.66 2.47 7.38 2.56M-372.3 493.1c-3.42-.16-6.99 1.78-7.86 5.54-.22.97-.08 1.73.71 2.37 2.53 2.07 5.32 2.8 8.5 1.74 2.54-.85 4.59-2.33 6.13-4.53 1.04-1.47 1.05-1.74-.42-2.81-2.1-1.52-4.49-2.2-7.06-2.31m102.75-17.08c2.46.25 4.89.05 7.2-.87 2.05-.82 3.39-2.35 4.01-4.46.23-.78.34-1.61-.3-2.31-1.56-1.73-4.73-3.74-7.97-2.13-3.73 1.86-5.93 4.99-7.55 8.65-.35.78.1 1.1.83 1.11 1.26.02 2.52.01 3.78.01m112.92-390.73c2.35 0 4.26-.32 5.41-.89 3.08-1.54 4.93-5.74 4.05-9.07-.16-.62-.57-.72-1.09-.89-1.63-.52-3.22-.13-4.83.05-4.08.46-7.18 2.96-7.25 7.73-.04 2.99-.02 3.06 3.04 3.06.23.01.45.01.67.01m-389.44 191.06c2.14 0 4.29-.02 6.43.01.92.01 1.39-.31 1.33-1.28-.03-.44 0-.89 0-1.33 0-2.91-.52-3.66-3.33-4.31-2.99-.69-6.04-.54-9.04-.11-2.21.32-2.82 1.24-2.87 3.49-.02.67.04 1.33-.01 2-.09 1.12.32 1.61 1.5 1.57 1.99-.09 3.99-.04 5.99-.04" style="fill:#19a2c6"/><path class="st1" d="M-346.16 269.03c-10.04.14-18.14.99-26.15 2.47-10.92 2.02-21.78 4.33-32.7 6.33a180 180 0 0 1-19.35 2.5c-4.96.37-9.92.53-14.87.24-7.78-.46-15.39-1.88-22.88-4.1-2.74-.81-3.96-2.63-4.86-4.94-.61-1.55.01-2.58 1.83-3.16 2.54-.81 5.08-1.61 7.66-2.28 6.35-1.64 12.29-4.28 18.13-7.2 8.7-4.35 16.68-9.89 24.91-15.04 15.42-9.64 31.84-17.05 49.48-21.63 5.08-1.32 10.19-2.57 15.43-3.02 6.27-.54 12.54-1.09 18.85-.82 5.02.22 10.03.6 15.03 1.19 5.97.7 11.82 1.9 17.59 3.58 9.49 2.76 18.29 6.88 25.86 13.32 4.2 3.57 7.91 7.61 10.61 12.47 2.03 3.66 3.5 7.53 3.67 11.76.17 4.44-1.2 8.47-3.8 12.06-3.64 5.02-8.7 8-14.58 9.54-2.4.63-4.99.72-7.51.53-8.4-.61-16.5-2.59-24.49-5.17-7.26-2.34-14.49-4.82-21.93-6.51-5.84-1.35-11.77-2.29-15.93-2.12m-123.87-6.71c-.28-.3-.19-.58-.06-.85 2.77-5.49 5.26-11.11 8.23-16.5 3.11-5.65 6.26-11.26 9.67-16.73 3.09-4.96 6.29-9.85 9.56-14.71 4.67-6.95 9.57-13.73 14.62-20.41 3.66-4.84 7.45-9.58 11.34-14.25 3.79-4.55 7.62-9.08 11.61-13.45 7.35-8.04 14.95-15.84 23.09-23.09 6.15-5.47 12.4-10.8 19.41-15.16 10.64-6.63 22.21-10.78 34.53-12.95 6.13-1.08 12.31-1.63 18.54-1.86 4.82-.18 9.64-.02 14.45.05 1.48.02 2.95.19 4.43.31.42.04.97 0 1.07.56.09.5-.34.78-.69 1.06-.83.66-1.81 1.02-2.81 1.29-2.57.7-5.13 1.43-7.72 2.03-1.28.3-2.34.87-3.33 1.68-5.39 4.42-9.26 9.93-11.88 16.37-1.95 4.8-3.49 9.75-5.65 14.48-3.2 7.01-6.55 13.95-10.61 20.5-4.08 6.58-8.9 12.51-14.81 17.6-9.95 8.56-20.48 16.35-31.17 23.95-12.99 9.23-26.38 17.86-40.11 25.94-12.59 7.41-25.51 14.2-39.04 19.76-3.83 1.58-7.71 3.06-11.68 4.29-.34.11-.67.33-.99.09m103.89 218.36c-6.14-1.86-11.18-5.24-15.69-9.54-7.12-6.77-13.28-14.32-18.54-22.61-3.86-6.08-7.05-12.5-10.05-19.04-2.69-5.86-5.8-11.51-8.94-17.13-3.94-7.05-8.16-13.94-12.55-20.71-2.82-4.35-5.8-8.59-8.8-12.82-3.22-4.54-6.04-9.31-8.67-14.21-2.66-4.96-5.23-9.97-7.44-15.14-3.64-8.5-6.85-17.16-8.92-26.2-.55-2.38-1.14-4.74-1.71-7.11-.15-.62-.39-1.25.15-2.13.97 1.53 2 2.85 3.08 4.13 3.17 3.75 6.81 6.99 10.56 10.14 8.87 7.44 18.51 13.82 27.97 20.45 5.17 3.62 9.73 7.96 13.97 12.65 3.89 4.29 7.43 8.84 10.71 13.6 4.29 6.23 8.06 12.77 11.53 19.49 2.41 4.67 4.67 9.41 6.79 14.22 3.23 7.31 6.24 14.72 8.72 22.32 2.92 8.94 4.98 18.09 6.26 27.43.91 6.6 1.77 13.19 1.81 19.87-.01.72.13 1.47-.24 2.34m37.71-101.25c-3 .37-5.94-.18-8.88-.36-7.46-.47-14.81-1.68-22.1-3.36-9.91-2.29-19.45-5.62-28.7-9.82-7.91-3.59-15.41-7.87-22.56-12.79-7.78-5.35-14.99-11.34-21.57-18.11-6.68-6.88-12.49-14.42-17.71-22.45-2.75-4.23-5.05-8.7-7.32-13.19-.29-.57-.73-1.14-.4-2.09 2.38.95 4.73 1.91 7.1 2.84 10.71 4.22 21.76 7.23 33.15 8.92 8.45 1.25 16.96 1.38 25.49.96 6.44-.32 12.78-1.32 19.04-2.81.84-.2 1.33-.05 1.92.59 4.49 4.82 7.93 10.3 10.62 16.31 2.87 6.42 5.32 13 8.09 19.46 3.8 8.89 8.62 17.19 14.62 24.8 2.76 3.49 5.64 6.87 8.85 9.95.23.24.54.48.36 1.15m34.51-160.74c-7.95-.09-15.4-.74-22.65-2.66-6.07-1.6-11.68-4.3-16.23-8.8-2.47-2.44-4.06-5.43-5.2-8.69-2.18-6.21-.37-11.66 3.2-16.72 4.93-6.98 11.97-10.82 20.03-13.05 4.59-1.27 9.29-1.73 14.01-2.19 7.83-.76 15.55-.04 23.15 1.63 9.7 2.13 18.56 6.14 25.53 13.52 2.92 3.09 5.44 6.45 6.5 10.7.32 1.26.36 2.47.02 3.72-1.75 6.42-5.83 11.03-11.3 14.55-5.13 3.3-10.84 5.08-16.76 6.25-4.8.95-9.65 1.46-14.56 1.45-2.06-.02-4.11.47-5.74.29m-88.17 160.71c.99-.1 1.58.45 2.19.79 7.84 4.39 15.99 8.08 24.29 11.49 8.98 3.69 17.08 8.81 24.4 15.21 7.24 6.33 13.01 13.78 17.37 22.31 3.49 6.82 5.76 14.07 7.02 21.64.35 2.12.5 4.26.83 6.38.19 1.24-.1 2.03-1.25 2.75-5.28 3.29-10.84 5.83-17.06 6.6-5.01.62-9.87.13-14.43-2.35-6.83-3.71-12.4-8.81-17.18-14.87-5.17-6.56-8.94-13.91-12.49-21.43-2.74-5.79-4.83-11.79-6.75-17.85-1.38-4.36-2.72-8.75-3.57-13.27-.61-3.27-1.53-6.48-2.18-9.75-.5-2.53-.8-5.08-1.19-7.65"/><path class="st1" d="M-446.78 293.78c5.14 1.75 10.47 2.51 15.81 3.22 2.78.37 5.6.49 8.41.69 8.37.6 16.75.37 25.12.26 5.39-.07 10.8-.22 16.19-.63 3.91-.29 7.86-.14 11.78-.32 9.33-.44 18.67-.53 28.01-.4 8.06.12 16.1.6 24.11 1.75 7.8 1.12 15.4 2.86 22.7 5.87 11.9 4.91 20.77 12.95 25.84 24.92.43 1.02.75 2.09 1.13 3.13.32.86.02 1.45-.81 1.77-1.65.64-3.3 1.33-4.98 1.88-5.23 1.7-10.59 2.64-16.07 3.18-4.6.45-9.2.47-13.77.24-5.16-.26-10.3-1.03-15.35-2.22-5.91-1.4-11.7-3.14-17.26-5.65-6.74-3.03-13.02-6.81-18.39-11.89-5.1-4.83-9.23-10.41-11.28-17.27-.36-1.19-1.08-1.25-2.03-1.11-2.19.32-4.37.76-6.58 1.01-3.89.44-7.78.89-11.68 1.3-5.99.63-11.97.78-17.97.64-6.73-.15-13.43-.8-20.07-1.99-6.66-1.19-13.13-2.98-19.26-5.87-1.31-.62-2.57-1.35-3.85-2.03.08-.16.17-.32.25-.48m122.88 46.99c7.09.34 14.17.8 21.18 2.08 8.63 1.57 17.03 3.82 25.08 7.31 5.95 2.58 11.59 5.69 16.14 10.41 3.02 3.13 5.42 6.65 6.07 11.13.44 3 .15 5.9-.94 8.72-2.04 5.27-4.91 9.93-9.57 13.34-5.05 3.7-10.7 4.9-16.82 4.12-7.8-1-14.76-4.21-21.36-8.31-7.93-4.92-14.88-11.04-21.23-17.82-4.87-5.2-9.2-10.84-12.83-16.99-1.81-3.06-3.36-6.26-4.56-9.62-.4-1.13-.19-1.62 1.05-1.99 1.84-.55 3.72-1.04 5.6-1.41 1.52-.3 3.08-.47 4.63-.58 2.52-.18 5.04-.27 7.56-.39m52.77-231.08c4.73.29 9.33 1.23 13.75 3.1 6.19 2.61 12.01 5.8 16.73 10.69 3.19 3.31 5.61 7.11 6.39 11.71 1.03 5.97-.48 11.48-3.79 16.44-5.2 7.8-12.51 12.73-21.61 14.82-7.79 1.79-14.87.03-20.8-5.4-2.57-2.35-4.39-5.37-5.88-8.55-2.91-6.23-4.68-12.79-5.19-19.61-.28-3.84.65-7.62 2.06-11.26 1.65-4.25 4.45-7.45 8.45-9.61 3.08-1.66 6.44-2.1 9.89-2.33m-168.41 283.8c1.06.58 1.23 1.34 1.57 1.96 4.56 8.31 9.31 16.52 14.5 24.46 2.63 4.03 5.48 7.91 8.27 11.83 4.77 6.71 9.13 13.65 12.83 21.02 2.53 5.04 4.68 10.24 6.32 15.63 2.16 7.12 3.64 14.35 3.19 21.85-.08 1.4-.25 2.8-.38 4.2-.18 1.83-.53 2.1-2.24 1.52-4.45-1.51-8.62-3.55-12.41-6.35-6.74-4.97-11.81-11.34-15.92-18.58-2.9-5.11-5.2-10.47-7.16-15.98-1.91-5.37-3.32-10.9-4.53-16.47-1.4-6.43-2.32-12.95-3.03-19.48-.4-3.67-.48-7.38-.73-11.07-.34-4.77-.01-9.5-.28-14.54m91.46-3.51c1.63-.6 3.14-.9 4.65-.99 2.59-.14 5.18-.43 7.75-.42 12.14.03 24.03 1.69 35.47 6 6.36 2.4 12.33 5.51 17.49 9.93 6.52 5.59 10.87 12.44 11.63 21.25.16 1.85.19 3.64.01 5.5-.28 2.97-3.83 5.96-7.68 5.42-8.16-1.14-15.57-4.11-22.29-8.83-4.38-3.07-8.3-6.6-11.67-10.8-6.48-8.08-13.9-15.15-22.94-20.41-3.14-1.83-6.23-3.72-9.64-5.03-.94-.35-1.88-.8-2.78-1.62"/><path class="st2" d="M-445.11 422.33c-1.24-1.2-1.17-2.41-1.49-3.43-1.4-4.45-2.98-8.83-4.56-13.21-3.17-8.77-6.77-17.36-10.49-25.91-2.28-5.22-4.45-10.51-7.11-15.53-1.66-3.13-1.94-6.26-1.9-9.62.05-4.67.13-9.35-.16-14-.32-5.3-.46-10.63-1.36-15.89-.21-1.24-.34-2.49-.47-3.74-.08-.74.07-1.42.72-2.02.98 1.25.67 2.66 1 3.9 2.08 7.89 4.95 15.49 8.26 22.93 2.04 4.59 4.3 9.09 6.36 13.68 4.44 9.92 8.81 19.87 11.17 30.56 1.59 7.22 1.96 14.52 1.53 21.86-.21 3.35-.95 6.67-1.5 10.42"/><path class="st1" d="M-212.73 116.05c-5.75-.06-10.79-1.71-14.85-5.72-3.91-3.87-5.38-8.74-5.4-14.12 0-.81.46-1.38.94-1.95 2.54-3.05 5.84-4.7 9.69-5.4 5.51-1.01 10.91-.31 16.25 1.1 3.66.97 7.16 2.38 10.46 4.26 2.31 1.31 2.35 1.59 2.1 4.24-.3 3.15-1.1 6.09-2.79 8.79-3.42 5.45-8.55 7.96-14.74 8.68-.59.07-1.19.09-1.66.12"/><path class="st2" d="M-202.16 36.42c5.25-.43 10.32.59 15.27 2.19 3.1 1 6.01 2.43 8.44 4.74 1.64 1.56 2.06 3.33 1.52 5.42-1.22 4.79-4.46 7.3-9.46 7.48-4.25.15-8.41-.46-12.56-1.24-3.85-.72-7.69-1.49-11.55-2.13-2.71-.45-5.47-.34-8.21-.22-1.88.08-2.71-.45-2.64-2.35.24-6.98 1.96-10.56 8.21-12.68 1.76-.6 3.58-1 5.42-1.18 1.85-.17 3.71-.03 5.56-.03m4.32 44.84c-9.98-.32-19.03-3.24-26.69-9.84-2.03-1.75-3.66-3.87-4.49-6.5-.39-1.24-.25-1.52 1.04-1.38 2.66.28 5.33.44 7.97.25 4.2-.31 8.41-.37 12.62-.57 6.12-.28 12.29-.53 18.31 1.17 3.12.88 5.91 2.28 8.01 4.9.81 1.01.91 1.89.43 3.05-1.59 3.79-4.4 6.26-8.22 7.59-2.9 1-5.87 1.55-8.98 1.33"/><path class="st1" d="M-215.01 152.5c-3.18.21-6.19-.38-9.04-1.8-1.79-.9-2.76-2.1-2.74-4.34.05-6.94 1.61-13.34 5.91-18.92.82-1.07 1.81-1.96 2.94-2.68 3.07-1.96 6.29-1.77 8.99.67 5.11 4.62 7.79 10.15 6.43 17.23-.26 1.37-.35 2.78-.54 4.17-.29 2.1-1.54 3.25-3.31 4.09-2.74 1.3-5.63 1.77-8.64 1.58"/><path class="st2" d="M-394.87 289.46c2.44-1.17 4.85-2.4 7.32-3.5 8.08-3.59 16.47-6.21 25.18-7.8 6.37-1.17 12.81-1.34 19.25-1.03 12.04.58 23.29 3.95 33.73 9.98 1.47.85 2.85 1.86 4.27 2.8.17.12.32.29.12.66-2.14-.62-4.23-1.54-6.43-2.12-4.52-1.2-9.11-1.94-13.74-2.49-7.44-.88-14.92-1.03-22.4-.87-6.88.15-13.74.58-20.58 1.31-5.66.61-11.31 1.24-16.95 2.05-3.21.46-6.38 1.17-9.6 1.55-.05-.18-.11-.36-.17-.54m132.1-215.41c-2.85.04-3.24-.4-2.47-3.22 1.37-4.99 2.75-9.99 5.23-14.58 1.57-2.9 3.42-5.51 6.41-7.18 3.95-2.2 10.58-.08 11.97 4.59.81 2.72.22 5.35-1.11 7.71-3.98 7.06-10.03 11.31-18.05 12.68-.63.09-1.32 0-1.98 0m34.17 137.71c-2.88.06-5.57-.57-8.02-2.13-4.76-3-5.07-8-1.51-12.41 2-2.48 4.63-4.14 7.45-5.49 4.28-2.05 8.27-1.11 11.2 2.36 2.91 3.46 3.92 9.26 1.04 13.22-2.06 2.84-5.05 3.98-8.38 4.44-.58.08-1.18.01-1.78.01m-71.46-130.43c.04 1.16-.38 2.14-1.01 3.11-2.02 3.1-4.75 5.46-7.72 7.56-8.28 5.87-17.25 10.3-27.1 12.88-.21.06-.42.16-.64.19-.56.09-1.23.45-1.62-.19-.31-.51.22-.96.45-1.39 3.11-5.92 7.84-10.3 13.33-13.97 4.93-3.31 10.3-5.82 15.5-8.65 1.75-.96 3.52-1.89 5.28-2.83 1.58-.85 2.31-.63 3.15.92.4.74.37 1.56.38 2.37m32.33 9.68c4.12.2 8.16.65 11.91 2.45.6.29 1.19.59 1.75.95 1.29.83 1.27.87.24 1.88-5.66 5.53-12.54 8.38-20.35 8.74-3.62.17-7.2-.73-10.55-2.3-1.03-.48-1.25-1.2-.9-2.16 1.09-3.03 2.88-5.42 5.87-6.91 3.83-1.91 7.88-2.5 12.03-2.65m16.95-4.57c-3.53-.26-7.08-.38-10.47-1.54-1.14-.39-1.19-.49-.46-1.48 1.84-2.48 4.27-4.29 6.88-5.84 5.29-3.14 10.92-5.24 17.16-5.21 3.4.02 5.26 1.32 6.38 4.15.76 1.9.22 3.47-1.09 4.84-1.03 1.08-2.28 1.89-3.67 2.44-3.45 1.38-7.04 2.23-10.77 2.31-1.32.04-2.61.55-3.96.33m92.92-59.45c.89 0 1.78-.08 2.66.01 3.62.39 5.9 2.46 7.17 5.79.28.72.27 1.47.18 2.19-.52 4.08-5.42 7.92-9.46 7.31-6.22-.94-11.16-4.12-15.03-9.01-.94-1.19-.78-1.82.71-2.59 4.32-2.22 8.85-3.72 13.77-3.7m-5.48 29.7c2.73 0 5.47.04 8.2-.02 1.08-.02 1.63.42 1.89 1.43 1.92 7.38-3.38 14.28-11.57 12.5-6.06-1.32-9.76-6.28-8.85-12.08.27-1.7.36-1.82 2.12-1.83 2.73-.02 5.47 0 8.21 0m-70.94 281.5c.18 2.71-.19 3-2.78 2.43-4.64-1.01-8.57-3.29-11.73-6.77-2.39-2.63-4.02-5.69-3.67-9.45.03-.37-.01-.76.09-1.1 1.06-3.68 1.51-4.16 5.02-2.96 6.27 2.13 10.5 6.21 12.39 12.59.5 1.69.58 3.48.68 5.26m10.63-72.59v.89c0 3.4-.81 4.59-4.01 5.79-3.41 1.28-6.76 1.3-10.05-.47-2.59-1.4-3.19-2.23-2.74-5.12.63-4.07 2.57-7.38 6.36-9.33 1.52-.78 3.16-1.11 4.91-.85 3.49.51 5.24 3.91 5.52 6.88.06.72 0 1.47.01 2.21m-281.69 10.99c-5.49 0-10.98.01-16.47 0-1.96 0-2.02-.1-1.91-1.99.19-3.08 1.29-4.21 4.5-4.24 8.38-.06 16.76-.03 25.14-.04 2 0 4.01.04 6.01-.01 1.06-.03 1.46.4 1.41 1.44-.05 1.18-.04 2.37 0 3.56.03.96-.39 1.31-1.33 1.29-2.08-.04-4.15-.01-6.23-.01zm213.21-208.04c1.37-6.76 4.51-12.28 11.06-15.3 3.54-1.63 6.98-.36 8.84 3.07 1.11 2.06.9 3.94-.6 5.75-2.16 2.6-5.11 3.99-8.13 5.21-3.09 1.25-6.32 2.05-9.61 2.59-1.41.25-1.61.07-1.56-1.32m51.37 168.37c-4.21.01-7.97-3.24-7.37-7.98.32-2.56 1.09-5.04 1.11-7.66.01-1.3.53-1.6 1.94-1.47 1.85.17 3.64.62 5.24 1.62.94.59 1.87 1.2 2.74 1.88 1.76 1.36 3.53 2.71 5.65 3.45.92.32 1.1.83.87 1.69-1.34 4.93-5.54 8.27-10.18 8.47m68.64-131.12c-1.43.19-2.61-.49-3.48-1.53-1.33-1.58-2.51-3.31-2.98-5.39-.42-1.87-1.18-3.66-1.34-5.6-.06-.74.03-1.33.8-1.62 3.05-1.14 6.05-2.43 9.4-2.42 4.42.01 6.81 2.95 5.86 7.26-.68 3.11-2.05 5.85-4.59 7.89-1.05.84-2.18 1.52-3.67 1.41M-554.69 223c.13-.46.49-.52.86-.55 3.68-.32 7.37-.62 11.05-.94 6.33-.55 12.67-1.12 19-1.68 3.31-.29 6.63-.55 9.95-.86.85-.08 1.25.17 1.23 1.06-.02 1.7-.04 3.41.01 5.11.03.99-.43 1.29-1.35 1.23-2.95-.21-5.91-.37-8.86-.59-2.8-.21-5.6-.5-8.4-.7-7.23-.51-14.46-.99-21.69-1.5-.63-.05-1.35.07-1.8-.58m107.4 66.43c-5.35.19-10.29-.58-15.13-2.03-2.21-.66-2.2-.67-2.37-3.04-.31-4.49-.32-4.47 3.93-3.36 8.36 2.18 16.76 4.19 25.2 5.99.29.06.59.08.86.19.25.11.59.27.45.63-.06.17-.29.35-.46.38-1.02.18-2.04.31-3.06.48-3.21.55-6.43.96-9.42.76M-191.38 32.3c-1.14-2.89-.55-5.24.99-7.35 2.85-3.92 6.71-6.36 11.46-7.35.87-.18 1.76-.17 2.64.04 2.1.51 3.09 1.69 3.44 4.09.26 1.79-.64 3.48-2.35 4.38-1.86.97-3.9 1.42-5.95 1.62-1.85.19-3.62.67-5.43 1.01-2.04.39-3.61 1.51-4.8 3.56m-295.28 190.28c0 1.56-.02 3.11.01 4.67.02.9-.24 1.4-1.26 1.32-3.47-.29-6.94-.57-10.41-.82-.8-.06-.97-.52-.97-1.18 0-2.59.01-5.19-.01-7.78 0-.82.34-1.2 1.18-1.26 3.4-.27 6.79-.57 10.18-.89 1-.09 1.31.35 1.29 1.28-.04 1.54-.01 3.1-.01 4.66m132.38 274.05c-3.26-.01-3.43-.3-2.55-3.45.86-3.08 2.94-4.87 5.85-5.87 4.03-1.37 8.2-1.05 12.34-1.04 1.09 0 .97.66.6 1.35-1.79 3.29-4.3 5.83-7.82 7.27-2.7 1.1-5.5 1.71-8.42 1.74m31.79-6.88c-2.77-.01-5.19-.99-7.36-2.67-.78-.61-1.02-1.26-.73-2.31.83-2.97 2.97-5.05 6-5.48 3.31-.47 6.32.34 9.02 2.29 1.23.89 1.43 1.58 1 3.07-.81 2.83-3.46 4.88-6.6 5.09-.44.04-.89.01-1.33.01m104.24-312.49c-2.72-.09-5.22-.85-7.39-2.55-.89-.7-1.23-1.48-.85-2.7 1.04-3.26 3.56-5.16 7.03-5.31 2.95-.13 5.52.75 7.89 2.41.86.6 1.15 1.25 1.09 2.4-.14 2.67-2.88 5.31-6.67 5.75-.35.03-.73 0-1.1 0M-372.3 493.1c2.57.1 4.96.79 7.06 2.31 1.47 1.07 1.46 1.34.42 2.81-1.55 2.2-3.59 3.68-6.13 4.53-3.18 1.06-5.97.33-8.5-1.74-.79-.64-.93-1.4-.71-2.37.87-3.76 4.44-5.7 7.86-5.54m102.75-17.08c-1.26 0-2.52.01-3.78 0-.74-.01-1.18-.33-.83-1.11 1.62-3.66 3.82-6.79 7.55-8.65 3.24-1.61 6.41.39 7.97 2.13.63.7.52 1.54.3 2.31-.62 2.11-1.96 3.64-4.01 4.46-2.31.91-4.74 1.1-7.2.86m112.92-390.73h-.67c-3.06 0-3.08-.08-3.04-3.06.07-4.77 3.17-7.27 7.25-7.73 1.6-.18 3.2-.58 4.83-.05.52.17.93.27 1.09.89.88 3.33-.97 7.53-4.05 9.07-1.14.57-3.06.88-5.41.88"/><path class="st1" d="M-546.07 276.35c-2 0-4-.05-5.99.02-1.18.04-1.59-.45-1.5-1.57.05-.66 0-1.33.01-2 .05-2.25.67-3.17 2.87-3.49 3-.43 6.05-.58 9.04.11 2.82.65 3.33 1.41 3.33 4.31 0 .44-.03.89 0 1.33.06.97-.41 1.29-1.33 1.28-2.14-.01-4.29.01-6.43.01"/><path d="M189.22 382.38c-.33 4.43-.63 8.6-.95 12.77-.25 3.37-.93 6.68-1.06 10.07-.17 4.26-1.32 8.41-1.63 12.66-.09 1.23-.62 2.43-.78 3.66-.77 5.93-2.21 11.7-4.15 17.33-1.07 3.11-2.16 6.28-4.83 8.54-.64.54-1.29.99-2.08 1.19-2.17.53-3.45-.43-3.48-2.68-.05-3.17-.01-6.34-.01-9.47-.56-.29-.7.16-.9.4-3.97 4.72-9.22 6.75-15.2 6.96-4.93.17-9.87.06-14.81.06-8.7 0-17.39-.01-26.09 0-3.56.01-7.06-.41-10.47-1.41-5.51-1.61-9.82-4.66-11.92-10.26-.89-2.37-1.28-4.86-1.35-7.36-.14-4.86.57-9.55 3.3-13.74 2.89-4.43 7.03-6.77 12.19-7.51 3.82-.54 7.65-.26 11.48-.33 1.69-.03 3.39-.03 5.09 0 1.5.03 1.61.12 1.61 1.69.03 4.43.03 8.85 0 13.28-.01 1.5-.12 1.59-1.7 1.61-3.46.03-6.93 0-10.39.02-1.03.01-2.07 0-3.09.15-2.23.32-3.22 1.42-3.28 3.46-.06 2.08.8 3.1 3.06 3.65 1.01.24 2.02.35 3.06.35q20.565-.015 41.13 0c1.34 0 2.66-.15 3.92-.57 1.6-.53 2.4-1.72 2.39-3.33-.01-1.57-.7-2.52-2.28-3.17-1.19-.49-2.44-.54-3.69-.54-4.35-.01-8.7 0-13.05-.01-2.1-.01-2.12-.03-2.13-2.07-.02-4.2-.01-8.41 0-12.61.01-2 .02-2.01 2.12-2.01 4.42-.01 8.84-.01 13.27 0 8.18.02 11.68 1.39 17.54 6.87.29-.59.17-1.17.17-1.72.01-4.28.02-8.56 0-12.83-.01-1.61-.04-1.61-1.56-1.66-.59-.02-1.18 0-1.77 0H92.83c-2.87 0-2.63.26-2.63-2.6-.01-3.91-.02-7.82.01-11.73.01-1.56.05-1.56 1.63-1.61.52-.02 1.03 0 1.55 0h73.19c3.67 0 3.67 0 3.67-3.78 0-1.7.02-3.39-.01-5.09-.02-1.65-.04-1.67-1.76-1.69-2.65-.02-5.31.01-7.96-.01-1.78-.01-1.81-.04-1.81-1.87-.02-4.35-.02-8.7 0-13.06.01-1.87.03-1.88 2-1.9 2.58-.01 5.16.01 7.74-.01 1.75-.01 1.78-.04 1.79-1.66.03-2.66-.03-5.31.02-7.97.02-1.05-.38-1.48-1.42-1.4-.59.05-1.18.01-1.77.01H93c-3.14 0-2.79.32-2.79-2.88-.01-9.15 0-18.29 0-27.44 0-.44.04-.89-.01-1.33-.13-1.2.47-1.5 1.56-1.49 4.27.04 8.55 0 12.82.02 1.74.01 1.79.06 1.8 1.95.02 3.91.01 7.82.01 11.73 0 .52.02 1.03.01 1.55-.03.84.37 1.19 1.2 1.19 3.54-.01 7.08-.02 10.61.01 1.24.01 1.18-.8 1.18-1.63 0-3.76-.01-7.52 0-11.29.01-2.89-.24-2.63 2.6-2.63 3.54-.01 7.08-.01 10.61 0 2.89.01 2.66-.28 2.67 2.56.01 3.61-.01 7.23 0 10.84.01 2.11.02 2.13 2.01 2.14q15.48.015 30.96 0c1.98 0 2-.03 2-2.13.01-7.3.01-14.6 0-21.91 0-2.3-.01-2.32-2.27-2.32-9.73-.01-19.46 0-29.19 0H93.45c-.52 0-1.03.02-1.55 0-1.63-.06-1.7-.1-1.71-1.81-.01-8.11-.07-16.23.03-24.34.05-3.86 1.05-7.44 4.17-10.1 1.49-1.27 3.15-2.22 5.03-2.68 6.79-1.68 13.67-2.06 20.59-.95 4.32.69 7.77 2.69 9.64 7.28 1.77-5.35 5.84-6.62 10.5-6.66 9.21-.07 18.43.02 27.64.04 2.57.01 2.44.22 2.44-2.34 0-1.77-.05-3.54.02-5.31.05-1.16-.27-1.68-1.55-1.79-3.89-.31-7.76-.79-11.64-1.17-5.79-.58-11.57-1.14-17.36-1.7-5.28-.5-10.56-.96-15.83-1.47-5.35-.52-10.69-1.09-16.04-1.61-5.13-.5-10.26-.99-15.39-1.44-2.23-.2-2.25-.16-2.25-2.26q-.015-12.06 0-24.12c0-1.81.03-1.8 1.78-1.97 10.03-.98 20.07-1.99 30.1-2.95 7.03-.67 14.08-1.27 21.11-1.94 6.89-.66 13.77-1.37 20.65-2.05 1.68-.17 3.37-.36 5.06-.47.85-.06 1.28-.27 1.37-1.27.25-2.89 1.08-3.57 4.02-3.16 3.65.52 7.24 1.39 10.34 3.5 1.06.72 1.55.46 2.06-.47.21-.39.47-.75.65-1.15 3.39-7.19 6.93-14.3 10.41-21.44 3.42-7.01 7.06-13.9 10.55-20.87 3.48-6.97 7.2-13.81 10.88-20.67 2.47-4.6 5.09-9.12 7.58-13.7 3.89-7.16 8.06-14.16 12.36-21.07 3.84-6.17 7.75-12.3 12.11-18.14 3.58-4.79 7.42-9.34 11.92-13.29 1.49-1.31 3.18-2.36 5.13-2.95 3.48-1.06 6.2-.06 8.13 3.04 1.13 1.82 1.03 3.02-.47 4.55-1.96 2-3.98 3.93-5.92 5.94-3.64 3.75-6.97 7.77-10.14 11.92-1.96 2.57-3.98 5.09-5.9 7.69-2.44 3.31-4.89 6.63-7.17 10.05-3.95 5.94-7.87 11.91-11.64 17.97-3.33 5.37-6.54 10.83-9.62 16.35-4.15 7.45-8.18 14.96-12.16 22.5-2.33 4.42-4.5 8.93-6.66 13.44-3.61 7.57-7.14 15.17-10.7 22.76-.87 1.86-1.65 3.76-2.55 5.61-.33.67-.33 1.18.01 1.85 1.62 3.18 2.53 6.56 2.82 10.12.67.14.94-.4 1.22-.77 2.19-2.85 4.34-5.73 6.53-8.58 3.91-5.06 7.9-10.06 11.74-15.17 2.91-3.88 5.92-7.68 8.94-11.48 4.07-5.12 8.24-10.15 12.26-15.3 3.75-4.8 7.72-9.43 11.66-14.07 3.76-4.42 7.48-8.88 11.4-13.17 3.82-4.18 7.57-8.41 11.43-12.55 4.21-4.51 8.39-9.06 12.79-13.39 3.61-3.55 7.14-7.19 10.84-10.64 4.95-4.6 10-9.1 15.08-13.57 3.97-3.49 7.95-6.99 12.13-10.22 3.08-2.38 6.12-4.81 9.28-7.1 5.89-4.27 11.79-8.54 17.88-12.51 4.55-2.97 9.18-5.81 13.83-8.61 6.17-3.71 12.5-7.13 18.93-10.33 5.91-2.94 11.9-5.75 18.01-8.31 5.96-2.5 12-4.76 18.03-7.05 3.77-1.43 7.64-2.59 11.49-3.81 6.93-2.21 13.97-4.03 21.02-5.82 6.12-1.55 12.31-2.75 18.51-3.93 6.28-1.2 12.61-2.06 18.93-2.97 4.51-.65 9.07-.92 13.58-1.48 4.23-.53 8.49-.56 12.71-1.16 2.53-.36 5.15-.15 7.73-.18 1.38-.01 2.12.73 2.52 2.02 1.1 3.5 2.13 7.01 2.67 10.65.32 2.11.86 4.18 1.12 6.29.32 2.63.57 5.27.63 7.91.1 3.98.07 7.97.02 11.95-.06 4.5-.65 8.95-1.5 13.36-.17.87-.33 1.73-.45 2.6-.51 3.72-1.61 7.3-2.58 10.9-1.85 6.83-4.49 13.36-7.2 19.88-1.38 3.33-2.88 6.6-4.56 9.77-2.3 4.35-4.66 8.67-7.24 12.87-3.46 5.64-6.96 11.27-10.8 16.66-4.59 6.46-9.29 12.85-14.32 18.98-1.23 1.5-2.79 2.87-3.2 4.94-.71 3.52-1.33 7.07-2.2 10.56-.71 2.86-1.14 5.76-1.74 8.64-1 4.75-1.97 9.5-2.9 14.26-1 5.11-1.87 10.25-2.93 15.35-1.44 6.9-2.98 13.78-4.52 20.67-1.21 5.45-2.68 10.83-3.99 16.25-1.13 4.65-2.48 9.24-3.94 13.76-3.55 10.98-7.81 21.71-13.49 31.81-3.51 6.23-7.6 12.05-12.3 17.44-.85.97-.88 1.67-.49 2.9 1.38 4.26 3.14 8.38 4.15 12.77.61 2.64 1.55 5.22 2.23 7.85 1.86 7.27 3.14 14.65 4.22 22.07.95 6.5 1.29 13.02 1.32 19.57.02 5.66.14 11.33-.1 16.99-.27 6.46-.85 12.91-1.59 19.35-.6 5.18-1.37 10.35-1.8 15.55-.22 2.7-1.34 5.11-2.22 7.59-2.58 7.21-5.56 14.26-8.75 21.22-2.82 6.16-5.81 12.23-10.33 17.4-2.66 3.04-5.32 6.08-8.15 8.97-3.93 4.01-8.34 7.44-12.68 10.94-4.35 3.51-9.07 6.52-13.81 9.49-5.17 3.24-10.57 6.08-16.01 8.82-3.93 1.98-8.07 3.54-12.13 5.25-5.29 2.22-10.72 4.07-16.23 5.69-5.14 1.51-10.37 2.67-15.64 3.7-4.41.87-8.86 1.37-13.31 1.84-3.21.34-6.48.09-9.72.2-6.89.24-13.66-.61-20.32-2.27-8.65-2.16-16.55-5.93-23.79-11.17-5.95-4.31-11.13-9.41-15.79-15.02-4.42-5.32-8.2-11.1-11.63-17.12-3.32-5.82-6.22-11.84-8.96-17.95-2.31-5.16-4.3-10.44-6.31-15.72-2.25-5.9-4.18-11.91-6.21-17.89-2.12-6.26-4.05-12.58-6-18.9-1.51-4.92-3.01-9.84-4.47-14.78-1.37-4.58-3.05-9.05-4.98-13.42-.01-.18-.18-.24-.63-.58M323.2 104.43c1.59-.31 3.13-.78 4.65-1.34a83.2 83.2 0 0 0 19.6-10.39c2.8-2 5.57-4.11 7.37-7.2.51-.88.76-1.74.65-2.72-.09-.76-.48-1.07-1.2-.69-.91.48-1.79 1.01-2.7 1.49-5.44 2.91-10.99 5.62-16.22 8.91-4.44 2.79-8.46 6.08-11.57 10.37-.33.46-.85.86-.59 1.56-.26.13-.06-.25-.2.01-.1.17-.05.23.12.2.29-.06-.12 0 .09-.2m-90.21 196.15c-.8-.37-1.6-.7-2.63-.25.99.05 1.73.66 2.63.45 1.28.33 2.54.8 3.84.96 4.08.5 8.16 1.04 12.25 1.27 7.87.44 15.75.24 23.6-.44 5.4-.47 10.78-1.24 16.14-2.09 4.01-.64 4.01-.61 5.49 3.29.03.07.06.14.08.21 3.13 7.99 8.56 14.16 15.35 19.18 4.14 3.06 8.69 5.48 13.4 7.57 5.92 2.64 12.11 4.37 18.46 5.63 6.15 1.22 12.32 1.91 18.59 1.88 3.17-.01 6.31-.27 9.46-.59 5.66-.57 11.14-1.85 16.45-3.85 1.42-.53 1.46-.59.94-2.07-.96-2.71-2.31-5.25-3.81-7.69-4.04-6.56-9.7-11.31-16.44-14.91-6.08-3.24-12.54-5.42-19.25-6.75-4.67-.92-9.38-1.68-14.17-2.07-5.05-.4-10.11-.92-15.17-1.02-6.77-.14-13.54-.16-20.32.12-7.93.34-15.87.53-23.8.98-3.75.21-7.51.2-11.27.19-8.62-.04-17.24.16-25.86-.11-1.32-.04-2.65-.2-3.96.11m-38.48 21.59c-.1-.2-.16-.23-.16-.07 0 .01.12.03.19.04-.11 1.19.11 2.35.45 3.48.88 2.95 1.7 5.93 2.69 8.85 1.32 3.89 2.73 7.75 4.32 11.55 1.33 3.19 2.66 6.39 4.17 9.49 2.16 4.42 4.54 8.74 6.9 13.06 1.23 2.25 2.47 4.51 4.02 6.58 2.07 2.76 3.98 5.64 5.98 8.45 2.64 3.7 4.98 7.6 7.43 11.43 3.33 5.2 6.51 10.49 9.53 15.87 2.51 4.48 4.87 9.04 7.26 13.59 1.16 2.2 2.39 4.39 3.29 6.7 1.93 4.95 4.53 9.56 7.24 14.08 3.13 5.21 6.64 10.2 10.55 14.88 2.69 3.23 5.64 6.21 8.65 9.12 1.9 1.83 3.84 3.64 6.03 5.14 2.12 1.46 4.45 2.45 7.13 3.61-.32-4.36-.45-8.39-.95-12.38-.65-5.1-1.37-10.18-2.31-15.25-.74-3.98-1.74-7.89-2.77-11.78-.9-3.39-2.13-6.7-3.2-10.05-2.05-6.38-4.73-12.5-7.32-18.65-2.51-5.96-5.42-11.74-8.45-17.45-3.76-7.09-8.04-13.86-12.74-20.36-3.36-4.65-7.17-8.92-11.24-12.96-1.88-1.86-3.73-3.79-5.84-5.35-5.55-4.11-11.21-8.07-16.87-12.02-7.18-5.01-14.11-10.32-20.54-16.28-1.16-1.09-2.02-2.5-3.44-3.32m-1.21-50.63c.6 2.86 2.44 4.07 4.94 4.55 1.01.19 2.04.35 3.01.67 5.28 1.73 10.74 2.42 16.23 2.83 4.78.36 9.58.23 14.36.08 3.89-.12 7.77-.54 11.61-1.23 3.47-.63 6.97-1.03 10.44-1.66 3.82-.69 7.62-1.55 11.47-2.16 4.49-.72 8.9-1.86 13.37-2.7 6.64-1.25 13.3-2.38 20.05-2.99 2.35-.21 4.71-.19 7.04-.47 4.58-.56 9.11-.14 13.62.44 3.93.51 7.81 1.33 11.66 2.32 4.63 1.2 9.2 2.62 13.74 4.1 3.7 1.2 7.41 2.38 11.14 3.47 4.87 1.42 9.83 2.53 14.9 2.92 3.72.29 7.46.61 11.13-.69 5.05-1.79 9.42-4.51 12.39-9.05 2.68-4.1 3.65-8.64 2.5-13.48-1.34-5.57-4.28-10.29-8.12-14.46-3.39-3.69-7.15-6.93-11.45-9.58-4.91-3.03-10.07-5.47-15.53-7.27-3.91-1.28-7.92-2.2-11.93-3.11-6.13-1.4-12.36-1.93-18.58-2.27-6.53-.35-13.08-.27-19.64.3-5.15.45-10.21 1.26-15.2 2.47-4.27 1.03-8.51 2.21-12.68 3.65-4.22 1.47-8.43 2.96-12.55 4.68-4.33 1.82-8.55 3.88-12.76 5.96-6.01 2.98-11.69 6.5-17.35 10.05-3.61 2.26-7.09 4.73-10.76 6.89-5.19 3.06-10.4 6.07-15.95 8.46-3.51 1.52-6.99 3.13-10.68 4.09-3.5.93-6.93 1.95-10.42 3.19m167.85-154.87c-5.59-1.13-11.24-.53-16.89-.34-2.56.09-5.13.38-7.68.66-5.55.6-11.01 1.76-16.4 3.24-5.9 1.61-11.57 3.83-17.03 6.57-4.08 2.04-7.94 4.45-11.67 7.05-7.36 5.14-14.03 11.16-20.46 17.37-6.65 6.42-13.13 13.02-19.16 20.08-3.67 4.3-7.38 8.56-11 12.9-6.07 7.29-11.79 14.86-17.26 22.61-3.94 5.59-7.79 11.23-11.52 16.98-4.04 6.23-7.77 12.63-11.46 19.06-2.48 4.34-4.84 8.74-7.02 13.24-.68 1.4-1.6 2.74-1.69 4.46 3.47-1.27 6.77-2.48 10.02-3.85 7.24-3.06 14.37-6.37 21.29-10.1 5.24-2.82 10.43-5.76 15.59-8.72 5.47-3.14 10.81-6.5 16.14-9.89 3.47-2.21 6.96-4.38 10.35-6.71 4.11-2.82 8.28-5.56 12.38-8.39 2.84-1.96 5.64-4 8.42-6.05 4.01-2.97 8.07-5.86 11.93-9.01 3.02-2.46 6.06-4.88 9.08-7.34 5.92-4.83 11-10.33 15.18-16.74 4.5-6.92 8.11-14.29 11.59-21.75 2.27-4.87 3.94-9.97 5.89-14.95 2.33-5.94 5.79-11.05 10.38-15.41 1.75-1.66 3.58-3.33 6.06-3.89 1.64-.4 3.29-.73 4.94-1.08m-36.28 261.16c-.23-.79-.58-1.17-.94-1.53-2.44-2.46-4.52-5.22-6.64-7.95-4.12-5.31-7.6-11.03-10.59-17.02-2.19-4.4-4.18-8.92-5.92-13.51-2-5.3-4.26-10.46-6.66-15.58-1.99-4.24-4.75-7.92-7.76-11.46-.46-.54-.95-1.05-1.88-.75-2.1.68-4.3.89-6.46 1.26-4.79.82-9.59 1.37-14.43 1.51-7.06.21-14.12.08-21.13-.88-2.47-.34-5.02-.49-7.4-1.1-3.62-.92-7.32-1.45-10.93-2.51-5.77-1.7-11.53-3.4-17.11-5.67-.83-.34-1.67-.85-2.79-.67 2.6 5.63 5.77 10.74 9.31 15.61 3.75 5.17 7.64 10.24 11.99 14.92 3 3.23 6.14 6.34 9.49 9.19 4.08 3.47 8.22 6.87 12.71 9.85 3.67 2.43 7.26 5.01 11.09 7.17 5.82 3.28 11.85 6.17 18.05 8.69 3.8 1.54 7.68 2.84 11.59 4.09 4.26 1.36 8.59 2.42 12.94 3.43 5.09 1.19 10.26 1.91 15.44 2.46 2.59.28 5.21.67 8.03.45m38.28-159.66c5.83.1 11.25-.36 16.63-1.05 4.72-.6 9.38-1.74 13.79-3.64 7.04-3.03 12.84-7.37 15.69-14.88.73-1.91.77-3.67 0-5.56-1.15-2.83-3-5.12-4.91-7.48-3.87-4.78-8.89-7.85-14.3-10.34-7.57-3.47-15.68-4.77-23.93-5.29-4.78-.3-9.53.15-14.29.72-4.32.52-8.6 1.16-12.61 2.85-5.57 2.35-10.72 5.26-14.46 10.33-1.76 2.39-2.78 4.98-3.7 7.68-.35 1.02-.59 2.18-.49 3.24.36 3.78 1.45 7.35 3.75 10.43 3.77 5.06 9.14 7.77 14.89 9.74 4.43 1.52 9.09 2.33 13.75 2.74 3.51.32 7.03.77 10.19.51m-84.46 165.02c-.37 1.33-.15 2.43.05 3.5.22 1.23.72 2.42.93 3.62.85 4.78 2.09 9.46 3.29 14.16 1.04 4.06 2.35 8.04 3.72 11.98 1.81 5.21 4 10.28 6.51 15.2 2.4 4.71 4.89 9.36 7.97 13.69 2.14 3.01 4.5 5.81 7.08 8.43 3.2 3.26 6.82 5.98 10.77 8.3 3.48 2.03 7.26 2.95 11.17 2.8 6.51-.25 12.48-2.5 18.01-5.91.91-.56 1.21-1.23 1.21-2.34-.01-4.55-1.11-8.93-2.3-13.23-2.35-8.48-6.11-16.33-11.42-23.42-5.76-7.69-12.73-13.99-20.77-19.2-5.46-3.54-11.36-6.12-17.3-8.65-4.19-1.78-8.32-3.69-12.42-5.68-2.12-1.01-4.13-2.23-6.5-3.25m53.78-39.84c-3.79-.15-8.96.36-14.05 1.69-1.54.4-1.52.43-1 1.89 1.45 4.05 3.76 7.64 6.06 11.22 2.23 3.47 4.84 6.65 7.49 9.81 3.26 3.9 6.91 7.41 10.65 10.82 4.02 3.66 8.4 6.87 13.06 9.71 4.98 3.03 10.08 5.71 15.83 6.99 4.25.95 8.41 1.54 12.79.3 3.98-1.12 7.31-3.08 10.04-6.01 2.26-2.42 3.8-5.35 5.18-8.38 1.68-3.69 1.45-7.42.79-11.22-.07-.43-.24-.85-.43-1.24-2.14-4.39-5.32-7.9-9.34-10.61-6.95-4.67-14.58-7.85-22.62-10.09a136 136 0 0 0-17.87-3.71c-5.01-.71-10.05-1.13-16.58-1.17m88.5-203.08c.6-3.72-1.32-7.11-3.31-10.36-2.1-3.44-5.29-5.9-8.6-8.11-3.18-2.13-6.62-3.75-10.14-5.29-3.98-1.74-8.12-2.54-12.37-2.87-2.28-.18-4.58.23-6.73.94-3.63 1.19-6.62 3.3-8.73 6.68-.84 1.35-1.34 2.78-1.87 4.19-1.18 3.09-1.74 6.34-1.51 9.68.27 3.96 1.21 7.81 2.34 11.59 1.09 3.66 2.64 7.14 4.63 10.43 2.12 3.51 5.08 6.04 8.69 7.83 4.78 2.36 9.78 2.16 14.83 1.09 2.68-.57 5.09-1.84 7.48-3.08 4.51-2.34 8.28-5.56 11.12-9.82 2.52-3.81 4.45-7.79 4.17-12.9M220.79 400.58c-.38 3.95.27 7.46.25 10.99-.03 4.2.67 8.35 1.21 12.49.7 5.38 1.47 10.77 2.78 16.05 1.21 4.84 2.41 9.69 4.09 14.39 1.39 3.87 2.97 7.66 4.74 11.38 2.36 4.94 5.25 9.54 8.7 13.74 3.66 4.45 8.01 8.21 13.08 11.05 1.93 1.08 3.95 1.95 6.04 2.67.92.31 1.41.06 1.39-.98-.01-1.32.3-2.62.33-3.95.1-3.93-.45-7.76-1.2-11.6-1.5-7.7-4.19-14.97-7.53-22.03-1.73-3.66-3.79-7.13-5.84-10.62-3.03-5.14-6.52-9.95-9.89-14.84-1.75-2.54-3.75-4.9-5.37-7.51-3.25-5.24-6.52-10.46-9.59-15.82-.97-1.7-1.67-3.58-3.19-5.41m95.61-9.24c.58 1.08 1.69.99 2.48 1.47 6.41 3.9 12.78 7.85 18.1 13.23 2.48 2.51 4.98 4.98 7.3 7.65 2.89 3.32 5.34 7.04 8.99 9.67.89.64 1.85 1.2 2.7 1.89 3.87 3.12 8.18 5.41 12.82 7.17 3.25 1.23 6.62 1.91 10.02 2.5 2.41.42 4.81-1.35 5.45-3.75.52-1.94.09-3.79-.04-5.69-.25-3.68-1.53-7.07-3.31-10.2-2.67-4.73-6.43-8.46-10.91-11.61-5.3-3.73-11.11-6.3-17.17-8.35-5-1.69-10.17-2.76-15.42-3.47-5.18-.7-10.37-1.23-15.59-1.08-1.77.06-3.63-.19-5.42.57M440.43 92.42c-.74 0-1.48-.06-2.21.01-2.78.25-5.58.48-8.03 2-4.64 2.87-4.84 3.89-3.98 8.1 1.18 5.76 4.43 9.66 9.65 12 3.25 1.46 6.69 1.94 10.28 1.47 3.84-.5 7.22-1.95 10.04-4.56 3.22-2.97 4.66-6.8 5.2-11.1.16-1.28-.16-1.95-1.23-2.44-1.93-.89-3.8-1.87-5.81-2.63-4.5-1.68-9.1-2.76-13.91-2.85M189.44 335.89c-.37 2.11.08 3.69.11 5.29.08 4.49.2 8.99.14 13.48-.05 3.34-.1 6.63 1.97 9.52.12.17.14.42.24.62 1.17 2.53 2.38 5.05 3.51 7.6 2.3 5.17 4.68 10.31 6.8 15.55 1.18 2.92 2.41 5.83 3.52 8.78 1.58 4.19 3.14 8.39 4.76 12.56.65 1.68.74 3.6 1.98 5.14.37-.86.52-1.65.55-2.47.29-7.45-.07-14.87-1.79-22.15-.68-2.85-1.57-5.65-2.44-8.45-1.2-3.86-2.74-7.6-4.3-11.33-2.13-5.09-4.55-10.04-6.73-15.1-1.86-4.31-3.89-8.55-5.79-12.84-.86-1.87-1.56-3.79-2.53-6.2M467.78 56.68c.81 0 1.62.02 2.43 0 4.48-.15 6.92-2.33 7.75-6.86.13-.69.05-1.34-.45-1.85-.77-.79-1.49-1.67-2.39-2.27-3.73-2.48-7.99-3.64-12.3-4.51-3.98-.81-8.05-.56-12.08-.52-2.82.03-5.52.76-8.09 1.85-1.55.66-2.94 1.66-3.8 3.21-1.05 1.91-1.21 4.06-1.55 6.15-.13.78.18 1.29 1.09 1.23.51-.03 1.03.02 1.54-.01 6.1-.42 11.94 1.25 17.85 2.28 3.32.57 6.61 1.25 10 1.3m-36.99 11.48c0 .9.37 1.36.73 1.82 2.19 2.74 4.88 4.88 7.99 6.47 2.42 1.24 4.9 2.33 7.5 3.18 3.37 1.1 6.84 1.63 10.33 2.05 2.81.34 5.59-.18 8.29-.87 3.45-.88 6.37-2.63 8.09-5.97.78-1.51.84-1.5-.36-2.84-2.02-2.25-4.72-3.22-7.53-3.84-5.51-1.22-11.12-1.07-16.71-.83-5.72.24-11.43.89-17.18.74-.36 0-.72.06-1.15.09m10.94 84.43c1.64.14 3.27-.16 4.82-.51 2.78-.63 5.5-1.55 5.44-5.24 0-.14.11-.27.14-.42.97-4.83 1.03-9.51-2.08-13.72-.74-1.01-1.48-2.01-2.33-2.94-3.56-3.91-7.38-2.86-10.15.52-2.79 3.4-4.44 7.41-5.08 11.8-.19 1.31-.25 2.62-.47 3.93-.51 3.01.4 4.18 3.25 5.44 2.1.93 4.29.87 6.46 1.14m-46.15-78.22c2.44-.18 4.75-.86 6.94-1.93 2.88-1.4 5.27-3.46 7.44-5.76 2.06-2.17 3.43-4.76 3.85-7.76.22-1.58-.16-3.04-1.29-4.27-2.29-2.49-6.75-2.83-9.42-.74-1.77 1.38-3.03 3.17-4.1 5.09-2.49 4.45-3.75 9.36-5.26 14.18-.22.7-.09 1.16.74 1.19.36.01.73 0 1.1 0m32.14 137.13c2.79 0 6.11-1.09 7.82-2.38.29-.22.59-.45.81-.73 3.76-4.72 1.52-12.2-4.2-14.13-.93-.31-1.87-.44-2.81-.14-3.79 1.21-7.04 3.28-9.53 6.41-2.17 2.72-1.81 6.82 1.09 8.69 2.34 1.5 4.86 1.87 6.82 2.28M152.5 279.61c4.42 0 8.84.04 13.26-.02 1.44-.02 3.31.68 4.22-.4.86-1.03.16-2.84.28-4.31.09-1.16-.41-1.52-1.53-1.52-9.73.04-19.45 0-29.18.06-3.1.02-4.22 1.25-4.34 4.34-.07 1.77-.03 1.84 1.81 1.84 5.16.02 10.32.01 15.48.01m124.14 6.79c.01.19.01.37.02.56 2.54-.27 5.09-.5 7.63-.81 1.31-.16 2.57-.69 3.9-.65 3.76.12 7.46-.62 11.22-.69 2.48-.05 5-.12 7.47-.39 4.85-.53 9.71-.38 14.54-.18 5.74.23 11.46.95 17.19 1.45-20.8-8.62-41.44-7.15-61.97.71M400.92 97.63c-2.14-1.36-4.38-1.74-6.63-2.15-5.51-.99-10.81-.43-15.9 1.97-2.1.99-3.48 2.63-4.5 4.65-.38.76-.29 1.17.57 1.49 2.78 1.05 5.68 1.68 8.6 1.59 5.3-.17 10.26-1.77 14.67-4.75 1.1-.74 2.47-1.32 3.19-2.8M104.13 225.96c.72.92 1.33.89 1.9.93 4.91.34 9.82.66 14.73 1.01 4.91.36 9.81.77 14.72 1.13 3.15.23 6.31.41 9.46.64.92.07 1.35-.25 1.33-1.23-.04-1.69-.03-3.39-.01-5.08.01-.89-.4-1.12-1.24-1.04-4.9.44-9.81.85-14.71 1.27-6.37.56-12.73 1.12-19.09 1.69-2.23.21-4.47.43-7.09.68M398.17 85.65c1.72.5 3.36.82 5.06.97 4.22.36 8.38 0 12.47-.95 2.49-.57 4.98-1.27 7.03-2.97 1.79-1.48 1.68-4.07-.29-5.38-.95-.63-2.02-.83-3.15-.83-6.81-.04-12.72 2.57-18.17 6.36-1.04.72-2.38 1.24-2.95 2.8m87.87-50.86c2.21 3.29 7.71 7.01 11.24 7.7 3.13.61 5.93.4 8.05-2.47 2.45-3.33.67-8-3.48-8.51-5.61-.69-10.89.41-15.81 3.28m6.26 25.91c-2.28 0-4.26.03-6.24-.01-1.02-.02-1.53.37-1.47 1.4.08 1.47.21 2.92.91 4.26 1.75 3.36 6.34 5.59 10.03 4.85 3.71-.74 6.62-4.68 6.21-8.42-.16-1.48-.37-1.57-1.84-1.8-2.63-.4-5.27-.23-7.6-.28m-85.91 265.09c.03 1.49.34 2.92 1.05 4.24 2.63 4.91 6.85 7.74 12.09 9.21 1.06.3 1.42.02 1.29-1.07-.23-1.89-.54-3.74-1.19-5.57-1.72-4.84-5.25-7.72-9.86-9.42-2.83-1.05-3.37-.54-3.38 2.61m25.06-59.27c.08-1.22-.02-2.67-.62-4.06-1.19-2.78-3.69-3.7-6.49-2.58-3.97 1.6-5.42 4.87-6.05 8.74-.23 1.37.76 2.05 1.71 2.55 2.41 1.25 4.94 1.68 7.62.82 2.96-.94 3.83-2.08 3.83-5.47M368.37 69.91c.22-.03.44-.04.65-.09 3.29-.76 6.51-1.76 9.51-3.32 1.47-.77 2.91-1.64 4.06-2.97 1.52-1.76 1.79-2.38.15-4.85-.94-1.41-2.49-2.25-4.15-1.88-1.53.34-3 1.02-4.34 2.02-2.75 2.04-4.45 4.79-5.9 7.77-.35.72-.62 1.49-.84 2.26-.2.68-.01 1.18.86 1.06m47.77 166.41c2.95.01 6.58-2.41 7.69-5.15.46-1.13.33-1.57-.72-2.12-1.77-.92-3.4-2.03-4.94-3.31a12.2 12.2 0 0 0-5.29-2.61c-.72-.16-1.11.03-1.17.84-.13 2.06-.58 4.07-.93 6.09-.6 3.47 1.79 6.24 5.36 6.26m70.27-143.28c-2.15.33-4.55.99-6.89 1.85-.77.28-1.11.86-.81 1.76.41 1.25.77 2.52 1.07 3.81.41 1.78 1.4 3.22 2.59 4.54 1.1 1.22 1.86 1.31 3.3.64 3.2-1.49 4.25-4.46 5.16-7.52.98-3.32-1.65-4.97-4.42-5.08M170.24 226.06c0-1.55-.02-3.1.01-4.64.02-.89-.16-1.32-1.25-1.2-2.7.3-5.42.48-8.14.64-1.03.06-1.42.47-1.41 1.5.04 2.43.05 4.87 0 7.3-.02 1.07.41 1.38 1.42 1.44 2.72.17 5.43.44 8.14.69.81.07 1.26-.17 1.24-1.07-.03-1.57-.01-3.12-.01-4.66m-57.19 53.48c1.84 0 3.67.01 5.51 0 2.16-.01 2.16-.02 2.18-2.17v-.66c-.01-2.87-.55-3.66-3.34-4.26-2.97-.63-6-.48-8.98-.1-2.15.28-2.78 1.23-2.83 3.49-.02.81.03 1.62-.01 2.42-.05.96.4 1.3 1.31 1.29 2.05-.04 4.1-.02 6.16-.01M467.51 30.11c2.65-1.22 5.38-1.31 8.04-1.76 1.67-.28 3.32-.62 4.85-1.35 1.24-.59 1.65-1.63 1.33-2.92-.36-1.5-.88-1.96-2.43-2.01-.8-.03-1.65-.06-2.41.16-3.53 1.04-6.55 2.9-8.84 5.84-.38.49-.83 1.02-.54 2.04M334.99 480.98c-.65 0-1.09-.05-1.53.01-1.68.22-3.08.97-4.01 2.42-.86 1.34-.68 2.09.68 2.87s2.84 1.33 4.38 1.36c2.45.04 4.91-.09 6.21-2.78.63-1.3.59-1.77-.72-2.46-1.61-.87-3.26-1.76-5.01-1.42m103.67-303.97c1.83.25 3.34-.65 4.73-1.77 1.13-.91 1.26-2.56.37-3.18-2.78-1.92-5.8-2.31-8.96-1.16-1.38.5-2.24 1.6-2.41 3.14-.06.55.03 1.01.6 1.28 1.77.85 3.5 1.86 5.67 1.69M302.7 494.51c5.64.48 13.24-3.21 13.94-6.69-2.97-.42-5.86.23-8.72.83-3.04.64-4.85 2.79-5.22 5.86M499.5 85.74c1.86.08 3.15-.26 4.39-.69 2.42-.83 3.42-3.2 3.56-5.31.07-1.03-.49-1.51-1.48-1.43-.87.08-1.73.28-2.6.38-4.36.47-5.2 2.89-5.41 6.16-.03.5.19.86.73.89.45.02.89 0 .81 0M388.05 474.27c2.03.36 3.87-.6 5.79-.93 1.57-.27 2.55-1.59 3.08-3.14.13-.39.1-.7-.12-1.03-.77-1.16-3.37-2.02-4.72-1.59-2.28.71-3.87 2.3-5.23 4.15-.49.66-1.54 1.31-1.05 2.21.41.76 1.49.18 2.25.33m-102.46 20.47c-1.18-.3-2.29.35-3.42.88-1.51.71-2.48 2.02-2.36 3.15.1.97 1.55 1.89 3.28 2.13 3.16.45 5.55-.98 7.62-3.13.83-.87.78-1.27-.35-1.8-1.44-.67-2.94-1.33-4.77-1.23m-70.94-206.36c-3.13-1.13-6.35-1.83-9.56-2.55-3.17-.71-6.25-1.87-9.67-2.2.14.67.28 1.03.27 1.39-.04 1.21.59 1.62 1.7 1.82 1.88.33 3.72.86 5.6 1.22 3.86.76 7.77.26 11.66.32" style="fill:#17a2c6"/><path class="st1" d="M193.3 271.54c3.49-1.23 6.92-2.25 10.41-3.17 3.69-.97 7.17-2.58 10.68-4.09 5.55-2.4 10.76-5.41 15.95-8.46 3.67-2.16 7.15-4.63 10.76-6.89 5.67-3.54 11.34-7.07 17.35-10.05 4.21-2.09 8.43-4.15 12.76-5.96 4.12-1.73 8.33-3.22 12.55-4.68 4.17-1.45 8.41-2.62 12.68-3.65 4.98-1.21 10.04-2.02 15.2-2.47 6.56-.57 13.11-.65 19.64-.3 6.22.33 12.44.87 18.58 2.27 4.02.92 8.03 1.83 11.93 3.11 5.46 1.79 10.62 4.24 15.53 7.27 4.3 2.65 8.06 5.89 11.45 9.58 3.84 4.17 6.79 8.89 8.12 14.46 1.16 4.83.19 9.38-2.5 13.48-2.97 4.54-7.34 7.26-12.39 9.05-3.67 1.3-7.41.98-11.13.69-5.07-.4-10.03-1.51-14.9-2.92-3.73-1.09-7.44-2.26-11.14-3.47-4.54-1.48-9.11-2.9-13.74-4.1-3.85-.99-7.73-1.81-11.66-2.32-4.52-.59-9.05-1-13.62-.44-2.33.28-4.69.26-7.04.47-6.75.61-13.41 1.74-20.05 2.99-4.47.84-8.89 1.98-13.37 2.7-3.84.61-7.64 1.47-11.47 2.16-3.47.62-6.97 1.03-10.44 1.66a79.4 79.4 0 0 1-11.61 1.23c-4.78.15-9.59.28-14.36-.08-5.49-.41-10.96-1.1-16.23-2.83-.97-.32-2-.48-3.01-.67-2.49-.5-4.33-1.72-4.93-4.57m167.85-154.87c-1.65.35-3.29.68-4.94 1.06-2.48.56-4.31 2.23-6.06 3.89-4.59 4.36-8.05 9.47-10.38 15.41-1.95 4.99-3.63 10.09-5.89 14.95-3.47 7.46-7.08 14.83-11.59 21.75-4.17 6.42-9.26 11.92-15.18 16.74-3.02 2.46-6.06 4.88-9.08 7.34-3.86 3.15-7.92 6.04-11.93 9.01-2.78 2.06-5.57 4.09-8.42 6.05-4.1 2.83-8.27 5.57-12.38 8.39-3.39 2.33-6.88 4.5-10.35 6.71-5.32 3.39-10.66 6.75-16.14 9.89-5.16 2.97-10.35 5.9-15.59 8.72-6.92 3.73-14.05 7.04-21.29 10.1-3.25 1.37-6.55 2.59-10.02 3.85.1-1.73 1.02-3.06 1.69-4.46 2.18-4.5 4.54-8.9 7.02-13.24 3.68-6.44 7.42-12.83 11.46-19.06 3.72-5.74 7.57-11.39 11.52-16.98 5.47-7.75 11.2-15.32 17.26-22.61 3.61-4.34 7.33-8.6 11-12.9 6.02-7.06 12.51-13.66 19.16-20.08 6.43-6.22 13.1-12.23 20.46-17.37 3.73-2.6 7.6-5.01 11.67-7.05 5.47-2.74 11.13-4.95 17.03-6.57 5.39-1.48 10.86-2.64 16.4-3.24 2.54-.28 5.11-.57 7.68-.66 5.64-.17 11.3-.77 16.89.36m-166.64 205.5c1.42.82 2.29 2.23 3.46 3.32 6.43 5.97 13.36 11.27 20.54 16.28 5.66 3.95 11.32 7.91 16.87 12.02 2.11 1.56 3.97 3.49 5.84 5.35 4.07 4.04 7.88 8.31 11.24 12.96 4.7 6.5 8.98 13.27 12.74 20.36 3.03 5.71 5.94 11.49 8.45 17.45 2.59 6.15 5.27 12.27 7.32 18.65 1.08 3.34 2.31 6.66 3.2 10.05 1.03 3.89 2.03 7.8 2.77 11.78.94 5.06 1.66 10.15 2.31 15.25.51 3.99.63 8.02.95 12.38-2.68-1.16-5.01-2.15-7.13-3.61-2.19-1.51-4.14-3.32-6.03-5.14-3.01-2.91-5.96-5.89-8.65-9.12a118.5 118.5 0 0 1-10.55-14.88c-2.71-4.52-5.31-9.13-7.24-14.08-.9-2.31-2.14-4.5-3.29-6.7-2.39-4.55-4.75-9.11-7.26-13.59-3.02-5.38-6.2-10.67-9.53-15.87-2.45-3.83-4.79-7.74-7.43-11.43-2-2.81-3.92-5.69-5.98-8.45-1.55-2.07-2.79-4.33-4.02-6.58-2.36-4.32-4.74-8.64-6.9-13.06-1.51-3.1-2.84-6.3-4.17-9.49-1.59-3.8-3-7.66-4.32-11.55-.99-2.92-1.82-5.89-2.69-8.85-.34-1.13-.56-2.28-.45-3.48zm130.36 55.66c-2.82.21-5.44-.17-8.03-.45-5.18-.56-10.35-1.28-15.44-2.46-4.35-1.01-8.68-2.07-12.94-3.43-3.91-1.24-7.79-2.54-11.59-4.09-6.2-2.52-12.23-5.41-18.05-8.69-3.83-2.16-7.42-4.74-11.09-7.17-4.49-2.98-8.64-6.38-12.71-9.85-3.35-2.85-6.49-5.96-9.49-9.19-4.36-4.69-8.25-9.75-11.99-14.92-3.53-4.88-6.71-9.99-9.31-15.61 1.12-.18 1.96.33 2.79.67 5.58 2.27 11.34 3.97 17.11 5.67 3.61 1.06 7.3 1.59 10.93 2.51 2.38.6 4.93.75 7.4 1.1 7.02.97 14.07 1.09 21.13.88 4.84-.14 9.65-.69 14.43-1.51 2.17-.37 4.37-.59 6.46-1.26.93-.3 1.43.22 1.88.75 3.01 3.53 5.77 7.22 7.76 11.46 2.4 5.12 4.67 10.28 6.66 15.58 1.73 4.6 3.72 9.12 5.92 13.51 2.99 5.99 6.47 11.72 10.59 17.02 2.12 2.73 4.19 5.49 6.64 7.95.36.36.7.74.94 1.53m38.28-159.66c-3.16.26-6.68-.19-10.19-.5-4.66-.41-9.32-1.21-13.75-2.74-5.75-1.97-11.12-4.68-14.89-9.74-2.3-3.09-3.39-6.66-3.75-10.43-.1-1.06.14-2.22.49-3.24.92-2.7 1.94-5.29 3.7-7.68 3.74-5.07 8.89-7.99 14.46-10.33 4.01-1.69 8.29-2.33 12.61-2.85 4.75-.57 9.5-1.02 14.29-.72 8.25.52 16.36 1.81 23.93 5.29 5.42 2.49 10.43 5.56 14.3 10.34 1.91 2.36 3.75 4.65 4.91 7.48.77 1.89.72 3.65 0 5.56-2.85 7.5-8.65 11.85-15.69 14.88-4.41 1.9-9.07 3.03-13.79 3.64-5.38.67-10.81 1.14-16.63 1.04m-84.46 165.02c2.37 1.01 4.38 2.24 6.47 3.26 4.1 1.99 8.23 3.9 12.42 5.68 5.94 2.53 11.85 5.11 17.3 8.65 8.04 5.21 15.01 11.5 20.77 19.2 5.32 7.1 9.07 14.94 11.42 23.42 1.19 4.3 2.3 8.67 2.3 13.23 0 1.11-.3 1.78-1.21 2.34-5.53 3.41-11.5 5.66-18.01 5.91-3.91.15-7.7-.77-11.17-2.8-3.95-2.31-7.57-5.04-10.77-8.3a70 70 0 0 1-7.08-8.43c-3.08-4.33-5.57-8.98-7.97-13.69-2.51-4.92-4.71-10-6.51-15.2-1.37-3.94-2.68-7.92-3.72-11.98-1.2-4.7-2.44-9.38-3.29-14.16-.21-1.2-.71-2.39-.93-3.62-.16-1.08-.39-2.17-.02-3.51m53.78-39.84c6.54.04 11.57.47 16.61 1.17 6.05.84 12 2.07 17.87 3.71 8.04 2.24 15.67 5.42 22.62 10.09 4.02 2.7 7.2 6.21 9.34 10.61.19.39.35.82.43 1.24.66 3.8.88 7.53-.79 11.22-1.38 3.04-2.93 5.96-5.18 8.38-2.74 2.93-6.07 4.89-10.04 6.01-4.39 1.24-8.54.65-12.79-.3-5.75-1.29-10.85-3.96-15.83-6.99-4.67-2.83-9.04-6.05-13.06-9.71-3.74-3.4-7.39-6.92-10.65-10.82-2.65-3.16-5.26-6.34-7.49-9.81-2.3-3.58-4.61-7.18-6.06-11.22-.52-1.46-.54-1.49 1-1.89 5.05-1.33 10.23-1.84 14.02-1.69"/><path class="st1" d="M232.99 300.58c1.31-.31 2.65-.15 3.96-.11 8.62.27 17.24.07 25.86.11 3.76.02 7.52.03 11.27-.19 7.93-.45 15.87-.64 23.8-.98 6.78-.29 13.56-.26 20.32-.12 5.06.1 10.12.62 15.17 1.02 4.79.38 9.49 1.14 14.17 2.07 6.71 1.33 13.17 3.51 19.25 6.75 6.75 3.6 12.41 8.35 16.44 14.91 1.5 2.44 2.85 4.98 3.81 7.69.52 1.48.48 1.54-.94 2.07a66 66 0 0 1-16.45 3.85c-3.15.32-6.28.58-9.46.59-6.27.02-12.44-.66-18.59-1.88-6.35-1.26-12.53-3-18.46-5.63-4.71-2.1-9.26-4.51-13.4-7.57-6.79-5.02-12.22-11.2-15.35-19.18-.03-.07-.06-.14-.08-.21-1.48-3.9-1.48-3.92-5.49-3.29-5.36.85-10.74 1.61-16.14 2.09-7.85.69-15.73.88-23.6.44-4.1-.23-8.18-.77-12.25-1.27-1.3-.16-2.56-.63-3.84-.96zm187.98-160.31c.29 5.11-1.64 9.09-4.17 12.89-2.84 4.26-6.61 7.48-11.12 9.82-2.4 1.24-4.8 2.52-7.48 3.08-5.05 1.06-10.05 1.27-14.83-1.09-3.61-1.78-6.57-4.32-8.69-7.83a44.8 44.8 0 0 1-4.63-10.43c-1.13-3.78-2.06-7.63-2.34-11.59-.23-3.34.33-6.59 1.51-9.68.54-1.41 1.03-2.84 1.87-4.19 2.11-3.38 5.1-5.49 8.73-6.68 2.14-.7 4.45-1.11 6.73-.94 4.25.33 8.39 1.13 12.37 2.87 3.51 1.54 6.96 3.16 10.14 5.29 3.3 2.21 6.49 4.68 8.6 8.11 1.99 3.26 3.9 6.65 3.31 10.37M220.79 400.58c1.52 1.83 2.22 3.71 3.19 5.41 3.07 5.35 6.34 10.58 9.59 15.82 1.62 2.61 3.63 4.97 5.37 7.51 3.37 4.9 6.87 9.71 9.89 14.84 2.05 3.48 4.12 6.96 5.84 10.62 3.34 7.06 6.03 14.33 7.53 22.03.75 3.85 1.31 7.67 1.2 11.6-.04 1.33-.35 2.63-.33 3.95.01 1.04-.48 1.3-1.39.98-2.09-.72-4.11-1.59-6.04-2.67-5.07-2.84-9.42-6.6-13.08-11.05-3.45-4.2-6.34-8.8-8.7-13.74-1.78-3.72-3.35-7.51-4.74-11.38-1.69-4.7-2.88-9.55-4.09-14.39-1.32-5.29-2.08-10.67-2.78-16.05-.54-4.14-1.24-8.3-1.21-12.49.03-3.54-.63-7.04-.25-10.99m95.61-9.24c1.79-.76 3.65-.52 5.43-.57 5.23-.14 10.41.38 15.59 1.08 5.25.71 10.42 1.78 15.42 3.47 6.05 2.05 11.87 4.62 17.17 8.35 4.48 3.15 8.24 6.88 10.91 11.61 1.77 3.14 3.05 6.52 3.31 10.2.13 1.9.56 3.75.04 5.69-.65 2.4-3.04 4.17-5.45 3.75-3.4-.59-6.77-1.27-10.02-2.5-4.64-1.76-8.95-4.04-12.82-7.17-.85-.69-1.81-1.25-2.7-1.89-3.65-2.63-6.1-6.35-8.99-9.67-2.32-2.66-4.82-5.14-7.3-7.65-5.32-5.38-11.69-9.33-18.1-13.23-.8-.47-1.91-.39-2.49-1.47M440.43 92.42c4.82.08 9.41 1.17 13.91 2.86 2.01.75 3.88 1.74 5.81 2.63 1.07.49 1.39 1.15 1.23 2.44-.53 4.3-1.98 8.12-5.2 11.1-2.82 2.61-6.2 4.06-10.04 4.56-3.59.47-7.03-.01-10.28-1.47-5.22-2.34-8.47-6.24-9.65-12-.86-4.21-.66-5.23 3.98-8.1 2.46-1.52 5.26-1.75 8.03-2 .73-.07 1.47-.02 2.21-.02"/><path class="st4" d="M189.44 335.89c.97 2.4 1.68 4.32 2.51 6.19 1.91 4.29 3.93 8.53 5.79 12.84 2.19 5.06 4.61 10.01 6.73 15.1 1.56 3.73 3.1 7.47 4.3 11.33.87 2.8 1.77 5.6 2.44 8.45 1.73 7.28 2.08 14.69 1.79 22.15-.03.81-.18 1.6-.55 2.47-1.24-1.54-1.32-3.46-1.98-5.14-1.62-4.17-3.18-8.37-4.76-12.56-1.11-2.96-2.34-5.86-3.52-8.78-2.12-5.24-4.5-10.38-6.8-15.55-1.14-2.55-2.34-5.07-3.51-7.6-.09-.2-.11-.44-.24-.62-2.07-2.88-2.01-6.17-1.97-9.52.06-4.49-.06-8.99-.14-13.48-.01-1.59-.46-3.17-.09-5.28"/><path class="st1" d="M467.78 56.68c-3.39-.04-6.68-.73-10.01-1.31-5.91-1.03-11.75-2.7-17.85-2.28-.51.04-1.03-.02-1.54.01-.91.05-1.21-.45-1.09-1.23.34-2.09.5-4.24 1.55-6.15.85-1.56 2.25-2.55 3.8-3.21 2.57-1.09 5.27-1.82 8.09-1.85 4.04-.04 8.1-.29 12.08.52 4.31.87 8.57 2.03 12.3 4.51.9.6 1.62 1.48 2.39 2.27.5.51.58 1.17.45 1.85-.83 4.53-3.27 6.71-7.75 6.86-.8.03-1.61.01-2.42.01m-36.99 11.48c.44-.03.8-.09 1.16-.08 5.74.14 11.45-.5 17.18-.74 5.59-.24 11.19-.39 16.71.83 2.82.62 5.52 1.6 7.53 3.84 1.2 1.34 1.14 1.33.36 2.84-1.72 3.34-4.64 5.09-8.09 5.97-2.7.69-5.48 1.21-8.29.87-3.49-.42-6.96-.95-10.33-2.05-2.6-.85-5.08-1.94-7.5-3.18-3.11-1.59-5.8-3.73-7.99-6.47-.38-.46-.74-.92-.74-1.83m10.94 84.43c-2.17-.27-4.36-.21-6.46-1.14-2.84-1.26-3.76-2.43-3.25-5.44.22-1.31.28-2.63.47-3.93.64-4.38 2.29-8.39 5.08-11.8 2.77-3.38 6.59-4.43 10.15-.52.85.93 1.58 1.94 2.33 2.94 3.11 4.21 3.05 8.9 2.08 13.72-.03.14-.14.28-.14.42.06 3.69-2.66 4.61-5.44 5.24-1.55.35-3.18.65-4.82.51"/><path class="st4" d="M395.58 74.37c-.37 0-.74.01-1.1 0-.83-.03-.96-.49-.74-1.19 1.51-4.82 2.77-9.73 5.26-14.18 1.07-1.92 2.33-3.71 4.1-5.09 2.68-2.09 7.14-1.75 9.42.74 1.13 1.23 1.51 2.69 1.29 4.27-.42 3-1.79 5.59-3.85 7.76-2.17 2.29-4.56 4.36-7.44 5.76-2.19 1.07-4.5 1.76-6.94 1.93"/><path class="st1" d="M427.72 211.5c-1.96-.41-4.48-.79-6.81-2.29-2.9-1.87-3.26-5.96-1.09-8.69 2.49-3.13 5.74-5.2 9.53-6.41.94-.3 1.88-.17 2.81.14 5.72 1.93 7.96 9.42 4.2 14.13-.22.28-.52.51-.81.73-1.72 1.3-5.04 2.39-7.83 2.39"/><path class="st4" d="M152.5 279.61c-5.16 0-10.32.01-15.47-.01-1.84-.01-1.88-.07-1.81-1.84.12-3.09 1.24-4.32 4.34-4.34 9.73-.06 19.45-.02 29.18-.06 1.13 0 1.63.36 1.53 1.52-.12 1.46.58 3.28-.28 4.31-.91 1.09-2.78.38-4.22.4-4.43.06-8.85.02-13.27.02m124.14 6.79c20.54-7.86 41.18-9.33 61.97-.7-5.73-.51-11.45-1.22-17.19-1.45-4.83-.19-9.69-.34-14.54.18-2.47.27-4.99.34-7.47.39-3.76.07-7.46.81-11.22.69-1.33-.04-2.59.5-3.9.65-2.54.3-5.09.54-7.63.81-.01-.2-.02-.39-.02-.57m46.55-181.99c-.26-.69.26-1.1.59-1.56 3.11-4.29 7.13-7.57 11.57-10.37 5.23-3.29 10.78-6 16.22-8.91.91-.49 1.79-1.02 2.7-1.49.72-.38 1.12-.07 1.2.69.11.98-.14 1.84-.65 2.72-1.8 3.08-4.58 5.19-7.37 7.2a83.5 83.5 0 0 1-19.6 10.39c-1.52.56-3.06 1.03-4.65 1.34zm77.73-6.78c-.72 1.49-2.09 2.06-3.19 2.81-4.41 2.98-9.37 4.58-14.67 4.75-2.92.09-5.82-.54-8.6-1.59-.85-.32-.95-.73-.57-1.49 1.02-2.02 2.4-3.66 4.5-4.65 5.09-2.4 10.38-2.96 15.9-1.97 2.25.39 4.48.78 6.63 2.14M104.13 225.96c2.62-.25 4.86-.48 7.1-.68 6.36-.57 12.73-1.13 19.09-1.69 4.9-.43 9.81-.83 14.71-1.27.84-.08 1.25.15 1.24 1.04-.02 1.69-.04 3.39.01 5.08.02.98-.41 1.3-1.33 1.23-3.15-.23-6.31-.4-9.46-.64-4.91-.36-9.81-.77-14.72-1.13s-9.82-.67-14.73-1.01c-.58-.03-1.19-.01-1.91-.93M398.17 85.65c.57-1.56 1.91-2.09 2.95-2.81 5.46-3.79 11.36-6.4 18.17-6.36 1.13.01 2.2.2 3.15.83 1.97 1.31 2.08 3.9.29 5.38-2.05 1.7-4.54 2.4-7.03 2.97-4.09.95-8.26 1.31-12.47.95-1.7-.13-3.34-.45-5.06-.96m87.87-50.86c4.92-2.87 10.2-3.97 15.8-3.29 4.15.51 5.94 5.18 3.48 8.51-2.12 2.87-4.92 3.08-8.05 2.47-3.52-.68-9.02-4.4-11.23-7.69m6.26 25.91c2.34.05 4.97-.13 7.6.28 1.47.23 1.68.32 1.84 1.8.4 3.74-2.51 7.68-6.21 8.42-3.69.74-8.28-1.49-10.03-4.85-.7-1.34-.83-2.79-.91-4.26-.05-1.03.45-1.42 1.47-1.4 1.98.04 3.96.01 6.24.01m-85.91 265.09c.01-3.15.55-3.67 3.38-2.62 4.6 1.71 8.14 4.58 9.86 9.42.65 1.83.96 3.69 1.19 5.57.13 1.09-.23 1.37-1.29 1.07-5.24-1.47-9.46-4.3-12.09-9.21-.71-1.31-1.02-2.73-1.05-4.23m25.06-59.27c0 3.4-.87 4.53-3.83 5.48-2.68.86-5.21.43-7.62-.82-.95-.5-1.94-1.18-1.71-2.55.64-3.87 2.08-7.14 6.05-8.74 2.8-1.13 5.3-.2 6.49 2.58.59 1.38.69 2.83.62 4.05M368.37 69.91c-.86.12-1.06-.38-.87-1.06.22-.77.49-1.54.84-2.26 1.44-2.98 3.15-5.73 5.9-7.77 1.35-1 2.81-1.68 4.34-2.02 1.66-.37 3.21.47 4.15 1.88 1.64 2.47 1.37 3.09-.15 4.85-1.14 1.33-2.58 2.2-4.06 2.97-2.99 1.56-6.22 2.56-9.51 3.32-.2.05-.42.06-.64.09m47.77 166.41c-3.57-.02-5.96-2.79-5.35-6.26.36-2.02.8-4.04.93-6.09.05-.81.44-.99 1.17-.84 1.98.43 3.75 1.32 5.29 2.61 1.53 1.28 3.17 2.39 4.94 3.31 1.05.55 1.18.99.72 2.12-1.13 2.73-4.75 5.16-7.7 5.15m70.27-143.28c2.76.1 5.4 1.76 4.42 5.08-.91 3.06-1.96 6.03-5.16 7.52-1.44.67-2.19.57-3.3-.64-1.19-1.31-2.17-2.76-2.59-4.54-.3-1.28-.66-2.56-1.07-3.81-.3-.9.04-1.47.81-1.76 2.35-.85 4.75-1.51 6.89-1.85"/><path class="st1" d="M170.24 226.06c0 1.55-.02 3.1.01 4.64.02.9-.43 1.15-1.24 1.07-2.71-.24-5.42-.52-8.14-.69-1.01-.06-1.44-.38-1.42-1.44.06-2.43.05-4.87 0-7.3-.02-1.03.38-1.44 1.41-1.5 2.72-.16 5.44-.34 8.14-.64 1.09-.12 1.26.31 1.25 1.2-.03 1.56-.01 3.11-.01 4.66"/><path class="st4" d="M113.05 279.53c-2.06 0-4.11-.02-6.17.01-.91.01-1.36-.32-1.31-1.29.04-.81-.01-1.62.01-2.42.05-2.26.68-3.21 2.83-3.49 2.98-.38 6.01-.53 8.98.1 2.79.59 3.33 1.39 3.34 4.26v.66c-.02 2.16-.02 2.16-2.18 2.17-1.83.01-3.67.01-5.5 0M467.51 30.11c-.29-1.01.16-1.55.55-2.04 2.29-2.94 5.31-4.8 8.84-5.84.75-.22 1.61-.19 2.41-.16 1.55.05 2.07.51 2.43 2.01.31 1.3-.1 2.33-1.33 2.92-1.53.73-3.19 1.07-4.85 1.35-2.67.45-5.4.54-8.05 1.76M334.99 480.98c1.75-.33 3.4.55 5.02 1.41 1.31.69 1.35 1.16.72 2.46-1.3 2.69-3.77 2.82-6.21 2.78-1.54-.03-3.03-.59-4.38-1.36-1.36-.78-1.54-1.53-.68-2.87.93-1.45 2.33-2.2 4.01-2.42.43-.05.87 0 1.52 0m103.67-303.97c-2.17.18-3.89-.84-5.67-1.69-.57-.27-.66-.73-.6-1.28.17-1.54 1.02-2.63 2.41-3.14 3.15-1.15 6.17-.76 8.96 1.16.9.62.76 2.27-.37 3.18-1.39 1.12-2.91 2.02-4.73 1.77M302.7 494.51c.37-3.06 2.17-5.22 5.22-5.86 2.86-.6 5.75-1.25 8.72-.83-.69 3.48-8.3 7.17-13.94 6.69M499.5 85.74c.08 0-.36.02-.8-.01-.55-.03-.77-.39-.73-.89.21-3.27 1.04-5.69 5.41-6.16.87-.09 1.73-.3 2.6-.38.99-.09 1.54.4 1.48 1.43-.14 2.11-1.13 4.48-3.56 5.31-1.25.44-2.54.78-4.4.7M388.05 474.27c-.76-.15-1.84.42-2.25-.32-.5-.9.56-1.55 1.05-2.21 1.36-1.85 2.95-3.44 5.23-4.15 1.36-.42 3.95.43 4.72 1.59.22.33.25.64.12 1.03-.53 1.55-1.51 2.87-3.08 3.14-1.92.32-3.75 1.28-5.79.92m-102.46 20.47c1.83-.1 3.32.56 4.78 1.24 1.13.53 1.18.93.35 1.8-2.07 2.15-4.46 3.58-7.62 3.13-1.73-.24-3.18-1.16-3.28-2.13-.12-1.13.85-2.44 2.36-3.15 1.12-.54 2.23-1.18 3.41-.89m-70.94-206.36c-3.89-.06-7.8.43-11.67-.32-1.87-.37-3.72-.89-5.6-1.22-1.11-.19-1.75-.61-1.7-1.82.01-.35-.13-.71-.27-1.39 3.42.33 6.51 1.49 9.67 2.2 3.22.73 6.44 1.42 9.57 2.55m18.34 12.2v.2c-.9.21-1.64-.4-2.63-.45 1.03-.45 1.83-.12 2.63.25m90.21-196.15c-.21.21.2.14-.09.19-.17.03-.21-.03-.12-.2.14-.26-.06.13.2-.01z"/><path class="st1" d="M194.53 322.14c-.06-.01-.19-.03-.19-.04 0-.15.06-.13.16.07.01 0 .03-.03.03-.03"/></svg>